<?xml version="1.0" standalone="no"?>
<!DOCTYPE svg PUBLIC "-//W3C//DTD SVG 1.1//EN" "http://www.w3.org/Graphics/SVG/1.1/DTD/svg11.dtd">
<svg xmlns="http://www.w3.org/2000/svg">
<metadata>Copyright (C) 2024 by original authors @ fontello.com</metadata>
<defs>
<font id="fontello" horiz-adv-x="1000" >
<font-face font-family="fontello" font-weight="400" font-stretch="normal" units-per-em="1000" ascent="850" descent="-150" />
<missing-glyph horiz-adv-x="1000" />
<glyph glyph-name="award" unicode="&#xe800;" d="M256 357q-42 91-42 207h-143v-53q0-44 53-91t132-63z m601 154v53h-143q0-116-41-207 79 16 131 63t53 91z m72 71v-71q0-40-24-80t-62-73-97-54-120-25q-23-30-53-53-21-19-29-40t-8-50q0-30 17-51t54-21q42 0 75-25t32-64v-36q0-8-5-13t-13-5h-464q-8 0-13 5t-5 13v36q0 39 33 64t74 25q38 0 55 21t17 51q0 28-8 50t-29 40q-30 23-53 53-64 3-121 25t-96 54-63 73-23 80v71q0 23 16 38t38 16h160v53q0 37 27 63t63 27h321q37 0 63-27t26-63v-53h161q22 0 38-16t16-38z" horiz-adv-x="928.6" />

<glyph glyph-name="right-open" unicode="&#xe800;" d="M31 684q30 31 74 31t74-31l335-334-335-334q-31-31-74-31t-74 31-31 74 31 74l188 186-188 186q-31 32-31 74t31 74z" horiz-adv-x="514" />

<glyph glyph-name="left-open" unicode="&#xe801;" d="M481 684q32-31 32-74t-32-74l-186-186 186-186q32-31 32-74t-32-74-73-31-74 31l-334 334 334 334q30 31 74 31t73-31z" horiz-adv-x="513" />

<glyph glyph-name="add_cheio" unicode="&#xe802;" d="M748 677c-2 0-4 0-6-1-13-2-26-11-31-22-5-10-5-15-5-55l0-37-37 0c-40 0-45 0-55-5-11-6-20-18-23-31-2-17 7-36 23-44 10-5 15-5 55-5l37 0 0-37c0-40 0-45 5-55 5-10 15-18 27-21h0c18-5 39 4 48 21 4 10 5 15 5 55l0 37 37 0c40 0 45 0 54 5 12 6 21 18 23 31 3 17-7 36-23 44-9 5-14 5-54 5l-37 0 0 37c0 40-1 45-5 55-7 13-22 23-38 23z m-348-6c-28 0-56-8-81-25-11-8-30-27-38-38-16-24-24-48-25-76-1-22 2-40 10-60 19-50 67-86 121-91 12-1 15-1 26 0 20 1 36 6 53 15 40 19 68 57 78 101 2 8 2 12 2 29 0 21-1 30-8 47-7 22-17 38-35 55-13 14-23 21-39 29-20 9-42 14-64 14z m-164-260c-25 0-47-14-68-42-47-63-90-205-80-268 2-14 4-22 9-33 10-19 25-32 43-36 3-1 63-1 263-1l259 0 6 2c10 4 17 9 25 16 11 11 17 25 21 43 2 7 2 11 2 27-2 68-33 175-67 233-18 31-38 49-61 57-10 3-26 3-37-1-11-4-18-8-31-20-13-14-23-21-36-27-25-13-44-16-89-15-24 0-30 0-38 2-27 6-52 19-74 41-4 5-10 10-12 11-11 7-23 11-35 11z" horiz-adv-x="1000" />

<glyph glyph-name="add_vazio" unicode="&#xe803;" d="M748 677c-2 0-4 0-6-1-13-2-26-11-31-22-5-10-5-15-5-55l0-37-37 0c-40 0-45 0-55-5-11-6-20-18-23-31-2-17 7-36 23-44 10-5 15-5 55-5l37 0 0-37c0-40 0-45 5-55 5-10 15-18 27-21h0c18-5 39 4 48 21 4 10 5 15 5 55l0 37 37 0c40 0 45 0 54 5 12 6 21 18 23 31 3 17-7 36-23 44-9 5-14 5-54 5l-37 0 0 37c0 40-1 45-5 55-7 13-22 23-38 23z m-348-6c-28 0-56-8-81-25-11-8-30-27-38-38-16-24-24-48-25-76-1-22 2-40 10-60 19-50 67-86 121-91 12-1 15-1 26 0 20 1 36 6 53 15 40 19 68 57 78 101 2 8 2 12 2 29 0 21-1 30-8 47-7 22-17 38-35 55-13 14-23 21-39 29-20 9-42 14-64 14z m1-60c24 0 45-8 62-25 9-11 18-25 21-39 3-11 3-31 0-42-4-17-12-30-24-42-12-11-26-19-42-22-9-2-26-1-35 0-25 6-48 24-59 48-7 12-9 22-9 37 0 11 1 14 3 21 4 17 12 29 25 42 16 15 35 22 58 22z m-165-200c-25 0-47-14-68-42-47-63-90-205-80-268 2-14 4-22 9-33 10-19 25-32 43-36 3-1 63-1 263-1l259 0 6 2c10 4 17 9 25 16 11 11 17 25 21 43 2 7 2 11 2 27-2 68-33 175-67 233-18 31-38 49-61 57-10 3-26 3-37-1-11-4-18-8-31-20-13-14-23-21-36-27-25-13-44-16-89-15-24 0-30 0-38 2-27 6-52 19-74 41-4 5-10 10-12 11-11 7-23 11-35 11z m335-86c2 0 11-14 18-28 23-48 44-127 47-179l1-7-236 0-235 0v10c0 55 35 162 67 203 1 1 2 1 10-6 34-28 72-45 113-50 15-2 73-2 88-1 48 6 89 25 122 55 3 1 5 3 5 3z" horiz-adv-x="1000" />

<glyph glyph-name="namaste_cheio" unicode="&#xe804;" d="M503 720c-2 0-5 0-7 0-28-1-49-6-74-19-34-18-63-50-78-87-4-9-9-29-11-39-12-94 52-179 146-192 12-2 38-1 51 1 74 13 130 72 140 146 1 13 0 41-2 54-8 40-32 77-64 102-30 23-64 34-101 34z m198-193c-7 0-9-1-13-5-5-4-6-6-8-21-6-34-19-62-40-83-10-10-22-19-33-24-9-3-13-6-15-11-3-5-3-13-1-18 2-2 8-8 16-16 20-18 43-41 50-52 11-13 24-37 23-38 0 0-8-1-16-1-17 0-17 0-19 6-3 10-14 31-24 44-22 30-47 51-66 56-11 4-23 1-30-6-7-7-6-4-7-76-2-127-2-127 0-132 4-7 8-9 25-13 58-13 118-23 165-27 20-1 58 0 73 2 46 7 70 25 75 58 11 64-1 131-36 203-23 48-60 101-97 140-12 12-15 14-22 14z m-401 0c-3 0-6-1-8-2-6-3-25-24-42-45-28-33-49-67-67-103-21-41-33-79-40-120-1-11-2-17-2-39 0-18 1-30 1-36 4-25 8-34 20-45 6-7 9-9 17-13 15-7 33-12 57-14 12-1 55 0 72 2 45 4 100 13 147 25 20 4 23 6 27 13l3 4 0 27c-1 14-1 57-2 96l-1 70-2 5c-4 8-14 14-24 14-7 0-14-2-22-7-19-10-43-34-61-62-7-9-15-26-17-33-2-6-2-6-19-6-8 0-16 1-16 1-1 1 7 16 14 26 3 6 10 14 13 18 8 9 34 35 50 49 11 11 13 15 13 22 0 9-5 16-14 19-15 5-34 20-46 36-16 21-25 42-30 73-1 7-2 13-3 15-1 3-6 6-9 8-2 1-6 2-9 2z m201-405c-4 0-10-1-20-4-63-18-98-23-155-24-15 0-30-1-32-1-7-2-13-11-13-19 0-7 10-41 19-60 8-18 13-26 18-29l5-3 88-1c179-1 251-1 255 0 2 1 5 3 7 5 5 4 18 24 27 42 12 24 14 38 8 50-5 11-12 14-29 14-7 0-16 1-21 2-52 5-139 20-149 26-3 1-5 2-8 2z" horiz-adv-x="1000" />

<glyph glyph-name="qr_vazio" unicode="&#xe805;" d="M190 685l-5-3c-7-3-12-8-15-15l-3-5 0-100c0-71 0-101 1-104 2-10 11-20 22-23 14-4 30 3 37 17l2 5 1 71 0 71 3 5c3 7 8 12 15 15l5 3 70 0 70 1 5 2c7 4 12 9 16 16 2 4 2 6 2 13 0 6 0 8-2 13-3 6-9 12-16 15l-5 3h-101z m419 0l-5-3c-7-3-13-9-16-15-2-5-2-7-2-13 0-7 0-9 2-13 4-7 9-12 16-16l5-2 70-1 70 0 5-3c7-3 12-8 15-15l3-5 0-71c1-70 1-71 3-75 4-9 10-15 19-18 3-1 6-2 11-1 12 1 22 7 27 18l3 5v102 103l-3 5c-3 7-8 12-15 15l-5 3h-102z m-233-105c-78 0-79 0-84-2-7-3-15-11-18-18-2-5-2-6-2-85 0-79 0-80 2-85 3-7 11-15 18-18 5-1 6-1 84-2 79 0 80 0 85 2 7 3 15 11 18 18 2 5 2 6 2 85 0 79 0 80-2 85-3 7-11 15-18 18-5 2-6 2-85 2z m250 0c-78 0-79 0-84-2-7-3-15-11-18-18-2-5-2-6-2-85 0-79 0-80 2-85 3-7 11-15 18-18 5-1 6-1 84-2 79 0 80 0 85 2 7 3 15 11 18 18 2 5 2 6 2 85 0 79 0 80-2 85-3 7-11 15-18 18-5 2-6 2-85 2z m-250-63c6 0 12-1 15-1 10-2 18-8 23-17 5-10 5-38 0-48-5-9-13-15-23-17v0c-7-1-24-1-31 1-13 2-22 12-24 25-1 8-1 22 0 30 2 14 12 23 26 26 3 0 9 1 14 1z m250 0c6 0 12-1 15-1 10-2 18-8 23-17 5-10 5-38 0-48-5-9-13-15-23-17v0c-7-1-24-1-31 1-13 2-22 12-24 25-1 8-1 22 0 30 2 14 12 23 26 26 3 0 9 1 14 1z m-250-186c-78 0-79 0-84-2-7-3-15-11-18-18-2-5-2-6-2-85 0-79 0-80 2-85 3-7 11-15 18-18 5-2 6-2 84-2 79 0 80 0 85 2 7 3 15 11 18 18 2 5 2 6 2 85 0 79 0 80-2 85-3 7-11 15-18 18-5 2-6 2-85 2z m210 0c-38 0-40 0-45-2-7-3-15-11-18-18-1-5-2-7-2-25v-19h52 52v32 32z m83 0v-32-32h-22-21v-43-42h52 52v62c0 61 0 62-2 67-3 7-11 15-18 18-5 1-7 2-23 2z m-471-63c-7 0-8 0-13-2-7-4-12-9-15-16l-3-5 0-100c0-71 0-100 1-104 2-10 12-20 22-23 3-1 25-1 104-1l99 0 5 3c7 3 13 9 16 15 2 5 2 7 2 13 0 7 0 9-2 13-4 7-9 12-16 16l-5 2-70 1-70 0-5 3c-7 3-12 8-15 15l-3 5 0 71-1 71-2 5c-4 7-9 12-16 16-4 2-6 2-13 2z m606 0c-7 0-9 0-13-2-7-4-12-9-16-16l-2-5-1-71 0-71-3-5c-3-7-8-12-15-15l-5-3-70 0-70-1-5-2c-18-9-24-31-13-47 5-6 11-10 17-12 4-1 25-1 104-1l100 0 5 3c7 3 12 8 15 15l3 5v103 102l-3 5c-3 7-8 12-15 16-5 2-7 2-13 2z m-428 0c6 0 12-1 15-1 10-2 18-8 23-17 5-10 5-38 0-48-5-9-13-15-23-17v0c-7-1-24-1-31 1-13 2-22 12-24 25-1 8-1 22 0 30 2 14 12 23 26 26 3 0 9 1 14 1z m145-86v-18c0-16 1-18 2-23 3-7 11-15 18-18 5-1 7-2 44-2l40 0v30 31h-52z" horiz-adv-x="1000" />

<glyph glyph-name="estrela_cheio" unicode="&#xe806;" d="M501 705c-4 0-8-1-11-2-6-1-13-7-17-12-1-2-24-48-51-102-26-54-48-98-48-98 0 0-49-7-109-16-76-11-111-16-114-18-7-2-14-8-18-15-3-6-3-7-3-16 0-16-6-9 83-96 43-41 78-76 80-78l2-2-5-30c-29-171-32-187-31-193 1-15 11-27 26-30 7-2 14-1 22 2 4 2 48 26 100 52 51 27 93 49 94 49 0 0 44-22 97-50 53-28 97-51 99-52 5-2 12-3 18-2 10 2 19 9 24 18 6 11 6 7-14 126-10 58-19 107-19 108 0 1 13 15 79 79 90 88 86 83 86 98 0 6 0 9-1 13-3 8-11 16-18 19-6 2 4 1-150 23-42 6-74 11-75 12 0 1-22 45-49 98-26 54-49 99-50 101-4 5-11 10-17 12-2 1-6 2-10 2z" horiz-adv-x="1000" />

<glyph glyph-name="sai_vazio" unicode="&#xe807;" d="M488 767c-82 0-120-1-124-1-17-3-31-16-34-33-2-7-2-175 0-183 4-21 25-36 46-33 16 2 27 11 34 27 2 4 2 7 2 71l1 68h166 167l0-334 0-333h-167-167v65c0 71 0 70-5 80-2 5-10 13-16 16-24 14-56-1-61-29-2-6-2-175 0-181 3-16 15-29 29-33 5-1 34-2 220-2 190 0 215 1 220 2 15 4 27 17 30 33 0 5 1 113 0 386l0 380-2 5c-2 7-4 10-9 15-5 6-10 9-17 11l-5 2-213 1c-36 0-68 0-95 0z m-206-136c-7 0-14-3-20-8-5-4-175-259-177-264-1-5-1-15 1-20 2-6 172-261 176-264 4-3 9-5 13-6 2-1 6-1 9-1 11 1 20 7 25 16l4 6 0 72 0 72 134 1 133 0 6 2c7 3 14 10 17 17 2 5 2 6 1 97l0 91-2 5c-3 6-10 12-16 14l-4 2-134 1-135 0 0 72 0 72-3 5c-6 11-17 18-28 18z m-31-135l0-36c0-34 1-36 2-40 3-6 9-12 15-15l5-3 135 0 135 0v-52-53l-134 0-134 0-7-3c-6-4-11-8-14-15-3-4-3-5-3-40l0-36-49 73-49 73 49 74z" horiz-adv-x="1000" />

<glyph glyph-name="volume-off" unicode="&#xe808;" d="M0 551l305 0 345 282 0-965-345 279-229 0z m713-283q0 4 2 6l76 76-76 76q-2 2-2 6t2 6l53 53q2 2 5 2t6-2l76-76 77 76q4 2 6 2t5-2l55-53q2-2 2-6t-2-6l-76-76 76-76q2-4 2-7t-2-5l-55-54q-2-2-5-2t-6 2l-77 78-76-78q-2-2-5-2t-6 2l-53 54q-2 2-2 6z" horiz-adv-x="1000" />

<glyph glyph-name="estrela_vazio" unicode="&#xe809;" d="M501 705c-4 0-8-1-11-2-6-1-13-7-17-12-1-2-24-48-51-102-26-54-48-98-48-98 0 0-49-7-109-16-76-11-111-16-114-18-7-2-14-8-18-15-3-6-3-7-3-16 0-16-6-9 83-96 43-41 78-76 80-78l2-2-5-30c-29-171-32-187-31-193 1-15 11-27 26-30 7-2 14-1 22 2 4 2 48 26 100 52 51 27 93 49 94 49 0 0 44-22 97-50 53-28 97-51 99-52 5-2 12-3 18-2 10 2 19 9 24 18 6 11 6 7-14 126-10 58-19 107-19 108 0 1 13 15 79 79 90 88 86 83 86 98 0 6 0 9-1 13-3 8-11 16-18 19-6 2 4 1-150 23-42 6-74 11-75 12 0 1-22 45-49 98-26 54-49 99-50 101-4 5-11 10-17 12-2 1-6 2-10 2z m-1-111l17-33c9-18 26-53 38-77 18-38 22-44 26-48 8-8 10-9 52-15 21-3 59-8 84-12 26-4 47-7 47-7 0 0-27-27-60-59-33-32-62-60-63-63-4-5-6-11-6-18 0-3 7-43 14-87 8-45 14-82 14-82 0 0-33 17-74 39-41 21-76 39-79 40-5 1-14 2-19 0-2 0-35-18-74-38-86-45-79-42-79-40 0 1 7 42 21 125 8 44 8 48 3 58-2 5-8 11-63 65-34 33-61 59-61 60 0 0 38 6 84 13 80 11 84 12 90 15 10 5 10 4 51 88z" horiz-adv-x="1000" />

<glyph glyph-name="grupo_cheio" unicode="&#xe80a;" d="M499 671c-22 0-39-4-58-12-44-20-76-59-85-108-3-12-2-41 0-54 5-20 12-36 23-53 24-36 63-59 106-63 12-1 15-1 27 0 35 3 64 17 90 42 17 17 27 33 35 55 6 17 7 26 7 48 0 16 0 20-2 29-3 14-6 22-13 35-7 15-15 26-26 38-29 28-63 43-104 43z m-249-95c-30 0-56-17-69-44-8-18-8-43 0-61 11-25 36-43 62-45 9-1 16 0 25 2 34 8 57 38 57 73 0 25-11 48-32 62-13 9-26 13-43 13z m497 0c-13 0-22-2-34-8-18-9-32-25-38-46-2-6-2-9-2-21 0-12 0-15 2-21 9-30 35-51 65-54 32-3 61 13 74 41 6 12 8 21 8 34 0 13-2 22-8 34-7 15-18 26-33 33-12 6-20 8-34 8z m104-122c-1 0-2 0-4 0-11-1-17-5-28-20-16-20-22-24-51-30-11-2-20-4-21-4 0-1 7-8 16-17 16-16 19-20 26-34 9-18 15-36 30-85l1-7 20 0c10 0 22 0 25 0 11 1 21 7 26 18 5 9 6 17 5 38-2 52-9 99-19 119-5 10-10 15-17 19-4 2-6 3-9 3z m-700 0c-1 0-2 0-3 0-11-1-19-8-26-22-10-20-17-61-19-115-1-19-1-23 0-29 4-17 12-27 26-30 5-1 48-1 49 0 0 1 2 5 3 10 14 48 24 77 36 94 2 3 11 13 19 22 15 15 16 16 14 16-1 1-11 3-21 5-26 5-34 9-46 25-14 19-21 24-32 24z m183-43c-5 0-10 0-15-2-9-2-14-4-23-10-28-19-54-61-78-124-24-64-37-133-33-170 3-27 13-48 28-61 7-5 17-10 24-12 5-1 54-1 264-1l259 0 6 2c10 4 17 8 25 16 15 16 23 37 23 64 0 42-14 112-34 167-25 69-51 108-82 124-10 5-18 7-30 7-10 0-12-1-19-3-12-4-17-8-31-21-26-25-51-37-87-41-6 0-20-1-38 0-24 0-30 0-37 2-16 3-32 9-45 18-10 6-25 17-28 22-12 14-31 23-49 23z" horiz-adv-x="1000" />

<glyph glyph-name="grupo_vazio" unicode="&#xe80b;" d="M499 671c-29 0-57-8-81-25-12-8-31-27-39-38-16-24-24-48-25-76-1-22 2-40 10-60 20-50 67-86 121-91 12-1 15-1 27 0 19 1 35 6 52 15 40 19 68 57 78 101 2 8 2 12 2 29 0 21-1 30-7 47-8 22-18 38-35 55-14 14-24 21-39 29-21 9-43 14-64 14z m0-60c24 0 45-8 62-25 10-11 18-25 22-39 3-11 3-31 0-42-5-17-13-30-25-42-12-11-26-19-41-22-9-2-27-1-36 0-25 6-48 24-59 48-6 12-8 22-8 37 0 11 0 14 2 21 5 17 12 29 25 42 16 15 35 22 58 22z m248-35c-13 0-22-2-34-8-15-7-25-18-33-33-6-12-8-21-8-34 0-13 2-22 8-34 12-23 35-39 60-41 9-1 17 0 25 2 26 6 46 26 55 52 2 6 2 9 2 21 0 12 0 15-2 21-7 21-20 37-39 46-12 6-20 8-34 8z m-501 0c-6 0-9-1-14-2-23-6-43-23-52-45-7-18-7-41 1-59 11-24 36-42 61-44 16-1 28 1 42 8 19 9 34 27 39 49 3 9 3 25 1 35-6 25-25 46-50 54-8 3-10 3-21 4-3 0-5 0-7 0z m502-39c1 0 3 0 5-1 24-4 37-30 26-52-5-9-14-16-25-18-8-2-15-1-22 3-15 7-23 23-20 38 3 17 19 30 36 30z m-499 0c10 0 20-4 27-12 7-7 10-14 10-24 0-11-3-17-10-25-6-6-12-9-20-10-5-1-8-1-14 0-18 5-30 22-27 40 3 19 18 30 34 31z m599-83c-7 0-13-3-19-8-2-1-6-7-10-12-16-20-22-24-52-30-11-2-20-4-20-4-1 0 6-7 15-16 16-16 21-22 27-35 9-18 15-35 30-85l1-7 20 0c10 0 20 0 21 0 3-1 12 1 16 3 9 5 16 16 18 28 3 16-2 79-8 110-5 25-12 42-21 49-5 5-12 7-18 7z m-700 0c-3 0-5-1-9-3-12-5-20-19-26-48-8-33-13-100-10-116 4-17 13-27 27-30 2 0 6 0 8 0 3 0 13 0 22 0 14 0 18 1 18 2 0 0 4 12 8 26 11 38 20 61 30 76 3 5 10 13 20 23 15 14 16 16 14 16-1 1-11 3-21 5-26 5-34 9-46 25-15 19-20 23-32 24-1 0-2 0-3 0z m186-43c-24 0-47-14-68-42-47-63-90-205-80-268 2-14 4-22 9-33 10-19 25-32 43-36 4-1 63-1 263-1l259 0 6 2c10 4 17 9 25 16 11 11 18 25 21 43 2 7 2 11 2 27-2 68-33 175-67 233-18 31-38 49-61 57-10 3-26 3-36-1-12-4-19-8-31-20-14-14-24-21-37-27-25-13-43-16-89-15-24 0-30 0-37 2-28 6-53 19-74 41-5 5-11 10-13 11-10 7-23 11-35 11z m-181-8c0 0 4-4 9-9 6-5 12-10 14-12l4-3-6-12c-9-19-15-35-25-69-1 0-2-1-4-1h-4l1 17c1 29 5 61 9 80 1 5 2 8 2 9z m692-1c1 0 1-1 1-1 4-17 6-32 8-54 1-8 2-23 2-32l1-18h-3-4l-3 11c-7 21-15 43-22 57-3 7-6 14-6 14 0 0 2 2 6 5 3 2 9 8 13 12 5 4 6 6 7 6z m-176-77c2 0 11-14 18-28 24-48 45-127 48-179l0-7-236 0-235 0v10c0 55 36 162 67 203 1 1 2 1 10-6 34-28 72-45 113-50 15-2 73-2 89-1 47 6 88 25 122 55 2 1 4 3 4 3z" horiz-adv-x="1000" />

<glyph glyph-name="lua_cheio" unicode="&#xe80c;" d="M505 607c-4 0-7 0-11 0-39-1-72-9-106-26-53-26-92-65-118-118-13-26-20-48-24-79-3-16-3-51 0-67 2-16 6-31 10-44 31-99 118-169 221-178 76-7 151 20 205 74 47 47 73 107 75 175 1 30-1 39-12 50-7 7-13 10-23 12-9 1-16 0-25-4-6-3-9-7-21-19-13-16-33-26-55-31-3-1-12-1-19-1-7 0-15 0-18 1-40 8-70 36-80 75-2 8-2 10-2 24 0 15 0 17 2 25 3 11 10 26 16 35 3 3 9 10 14 14 14 13 17 17 20 22 8 17 5 35-8 48-10 9-18 12-41 12z" horiz-adv-x="1000" />

<glyph glyph-name="setas_cheio" unicode="&#xe80d;" d="M713 664c-1 0-3 0-5 0-6 0-7 0-13-3-7-3-12-8-14-16-2-4-2-7-2-32v-28l-139 0-139 0-5-3c-6-3-12-8-15-14l-2-5v-87c0-87 0-88 2-92 3-6 8-11 14-14l6-3 138 0 139-1 1-29c0-28 0-29 2-33 5-8 11-13 18-16 6-1 16-1 22 2 4 1 18 15 87 84 94 94 89 88 89 102 0 13 4 8-88 100-81 82-87 88-96 88z m-416-255c-2 0-3 0-5 0-6 0-9-1-12-2-3-2-28-26-88-86-81-81-83-84-85-89-3-7-3-17 0-24 2-4 17-20 83-86 45-44 83-82 85-84 3-1 6-3 8-4 2-1 6-1 10-1 12-1 21 5 27 16l3 6 0 28 1 29 139 0 138 1 5 2c6 2 11 8 14 15l3 5v86 86l-3 5c-3 7-7 12-14 15l-6 3-139 0-138 1 0 28c0 28 0 28-3 33-3 7-7 11-14 15-4 2-6 2-9 2z" horiz-adv-x="1000" />

<glyph glyph-name="lua_vazio" unicode="&#xe80e;" d="M505 607c-4 0-7 0-11 0-39-1-72-9-106-26-53-26-92-65-118-118-13-26-20-48-24-79-3-16-3-51 0-67 2-16 6-31 10-44 31-99 118-169 221-178 76-7 151 20 205 74 47 47 73 107 75 175 1 30-1 39-12 50-7 7-13 10-23 12-9 1-16 0-25-4-6-3-9-7-21-19-13-16-33-26-55-31-3-1-12-1-19-1-7 0-15 0-18 1-40 8-70 36-80 75-2 8-2 10-2 24 0 15 0 17 2 25 3 11 10 26 16 35 3 3 9 10 14 14 14 13 17 17 20 22 8 17 5 35-8 48-10 9-18 12-41 12z m-79-100c0 0 0 0 0 0 0 0-1-4-2-9-15-54-3-114 32-160 6-7 22-23 30-30 26-21 57-34 89-39 22-3 52-2 73 4 4 1 8 2 8 2 1-1-6-13-12-21-28-43-73-70-125-76-10-1-28-1-38 0-63 7-117 48-141 108-9 22-13 38-13 65 0 14 1 21 2 28 9 48 35 88 73 114 9 6 22 14 24 14z" horiz-adv-x="1000" />

<glyph glyph-name="bussola_cheio" unicode="&#xe80f;" d="M372 724l-5-3c-6-3-11-8-14-14-2-4-2-4-2-33v-29l-10-6c-13-7-36-22-49-32-21-17-46-43-61-64-32-47-52-98-59-155-3-18-3-57 0-75 7-56 26-107 57-151 56-80 146-132 243-140 63-5 128 9 183 39 14 8 37 23 50 33 13 10 40 37 50 50 39 49 63 105 71 169 2 18 2 57 0 75-3 17-5 30-9 45-23 87-80 162-159 205l-11 7 0 28 0 28-2 5c-3 7-8 12-14 15l-5 3h-127z m276-217c0 0 0 0 0 0 0 0-8-35-38-152-11-45-21-83-21-85-1-4-2-4-6-6-16-4-47-14-68-20-45-14-93-29-126-39-17-5-34-10-36-11-3-1-4-1-4 0 0 1 4 17 9 36 34 135 44 173 47 188 4 17 4 17 7 18 5 1 70 21 84 26 7 2 30 9 50 15 20 6 52 16 69 21 17 5 31 9 33 9z m-149-116c-18 0-34-12-39-31-2-7-2-12 0-19 4-15 14-25 28-29 23-6 46 9 50 32 4 21-12 42-33 46-2 0-4 1-6 1z" horiz-adv-x="1000" />

<glyph glyph-name="bussola_vazio" unicode="&#xe810;" d="M373 724l-5-2c-7-4-11-7-14-14l-3-6-1-29 0-29-11-6c-84-46-145-130-163-224-13-68-5-138 24-200 27-60 72-111 128-145 42-25 90-41 137-46 6 0 12-1 14-1 7-1 49 0 59 2 35 4 64 12 94 26 109 48 184 152 195 271 1 14 1 45 0 59-6 63-30 124-70 175-26 33-63 64-100 84-10 6-11 6-10 8 0 2 1 14 1 29 0 25 0 26-2 30-3 6-11 14-17 16-4 2-8 2-130 2z m123-104c43 1 86-9 126-29 90-46 147-139 147-240 0-110-68-210-169-250-28-12-53-17-83-19-98-7-194 42-247 126-20 32-33 69-39 109 0 5-1 18-1 34 0 16 1 28 1 33 9 62 35 115 78 157 22 22 43 37 70 51 9 4 22 10 29 12 29 11 58 16 88 16z m171-80c-6 0-16-2-34-8-25-8-57-17-132-40-99-31-92-28-104-39-8-8-13-15-16-24-2-4-20-76-56-222-4-15-7-29-7-31 0-7 4-13 9-15 2 0 5-1 8 0 3 0 48 13 103 30 7 2 42 13 78 24 44 14 68 22 72 24 12 6 24 20 29 31 1 3 13 50 27 105 13 55 27 110 31 123 6 26 7 31 3 36-3 4-6 6-11 6z m-58-73c1 0-6-27-17-73-11-40-21-80-23-89-2-9-4-16-4-17-1 0-13-4-27-8-29-9-69-21-115-36-18-5-33-10-34-10-1 0-1 1-1 2 1 1 7 24 13 52 7 27 17 66 22 87 5 20 10 37 11 38 0 0 12 4 27 9 14 4 53 16 86 26 34 10 61 19 62 19z m-110-76c-10 0-20-4-28-12-9-9-14-23-12-35 3-16 14-28 30-32 19-5 38 4 47 22 2 6 2 7 2 17 0 9 0 10-2 16-8 15-22 24-37 24z" horiz-adv-x="1000" />

<glyph glyph-name="sai_cheio" unicode="&#xe811;" d="M485 767c-82 0-118-1-121-1-17-3-30-15-34-32-1-5-1-18-1-92 0-60 0-89 1-92 6-30 41-43 65-25 6 4 10 8 14 16l3 7 0 67 1 68h166 167l0-334 0-333h-167-167v65c0 62 0 66-2 72-3 10-10 18-19 24-24 14-56-1-61-29-2-6-2-175 0-181 3-16 14-28 28-33 5-1 15-2 220-2 142 0 216 1 219 1 16 4 29 18 32 35 1 8 1 754 0 763-3 15-13 27-28 33l-5 2-213 1c-38 0-71 0-98 0z m-203-137c-8 1-14-2-20-7-5-4-175-259-177-264-1-5-1-15 1-20 1-5 171-259 175-263 4-3 9-6 14-7 2-1 6-1 9-1 11 1 21 8 26 18l3 5 0 72 0 71 134 1 133 0 5 2c7 3 14 9 17 15l2 5v93 92l-2 4c-3 6-9 12-15 15l-5 2-134 1-135 0 0 72 0 72-3 5c-3 6-9 12-15 15-3 1-7 2-12 2 0 0-1 0-1 0z" horiz-adv-x="1000" />

<glyph glyph-name="doacao_cheio" unicode="&#xe812;" d="M588 687c-26 0-54-11-80-30-4-3-8-6-9-6 0 0-1 1-2 2-6 7-36 23-51 28-29 10-62 7-87-7-12-8-28-22-36-34-20-30-24-68-9-100 9-20 27-42 53-66 18-16 28-24 59-49 36-29 45-36 59-50l12-11-21 0c-23 0-44-1-50-3-2 0-11-4-19-7-32-14-44-21-63-39l-5-5-5 5c-3 2-15 13-27 24-29 26-48 43-94 81-21 18-42 36-47 40-11 10-14 12-24 12-9 0-15-3-21-9-9-10-8 2-8-131v-116l2-4c1-3 3-6 4-8 2-1 18-15 36-31 18-16 54-48 80-71 26-23 51-44 56-48 23-20 52-35 76-38 3-1 54-1 113-1l107 0 13 7c46 22 95 53 133 83 32 26 67 61 100 102 24 27 49 59 51 62 3 6 4 12 5 22 1 19-4 31-17 44-13 13-29 19-50 19-19 0-33-4-55-16-19-9-23-13-44-31-22-19-35-29-52-39-23-14-35-20-62-30l-15-6-25 0c-16 0-25 0-25 0 3 2 15 3 23 3 18 0 42 7 57 17 33 21 43 59 23 92-5 9-8 12-15 16l-6 3-41 0c-22 0-50 1-61 1l-21 0 11 11c15 14 20 18 58 49 47 37 69 57 87 78 23 27 33 48 34 74 2 33-11 63-37 85-9 8-15 12-21 15-13 7-32 11-47 11z" horiz-adv-x="1000" />

<glyph glyph-name="editar_cheio" unicode="&#xe813;" d="M767 609c-5 0-11-1-14-2-10-5-16-14-17-25 0-4 0-8 1-10l1-3-5 1c-12 2-21 0-30-6-3-2-7-5-8-7-2-2-35-64-74-138-39-74-78-150-88-168-10-19-19-37-20-40-2-5-2-7-2-17 1-10 1-10 14-54 8-24 15-46 16-49 5-9 14-17 24-20 9-3 18-2 69 10 44 10 49 11 56 15 5 2 10 5 14 9 5 5 6 8 18 30 16 30 30 58 42 80 5 9 13 25 19 36 5 10 14 27 19 37 6 10 18 34 29 54 10 20 27 52 37 72 11 19 20 37 21 40 2 9 1 20-3 28-1 3-4 8-6 10-2 2-3 4-3 4 0 0 3 1 5 2 3 1 7 4 9 6 12 12 11 31 0 42-3 3-19 12-59 33-30 16-56 29-58 30-2 0-4 0-7 0z m-465-461c-80 0-160 0-164-1-32-5-45-42-23-66 5-5 10-9 17-11 4-1 15-1 170-1 162 0 166 0 171 1 11 4 20 11 25 22 3 8 4 20 1 28-5 15-17 25-32 27-4 1-85 1-165 1z" horiz-adv-x="1000" />

<glyph glyph-name="setas_vazio" unicode="&#xe814;" d="M712 664c-1 0-2 0-4 0-11 0-21-5-26-15l-3-5 0-29 0-30-139 0-139 0-6-3c-5-3-7-5-10-8-7-9-6-4-6-100l0-86 2-4c4-7 9-11 14-14l6-3 138 0 139-1 1-29 0-29 3-5c3-7 10-12 18-15 5-1 15-1 21 2 4 2 19 17 88 85 93 93 88 87 88 101 0 13 4 8-89 101-82 82-87 87-96 87z m26-102l44-43 43-43-43-44-44-43 0 7c-1 12-6 21-16 26l-6 4-139 0-139 0 0 50 0 50 140 0 139 0 5 3c10 5 15 14 16 26z m-445-153c-5 0-10-1-14-3-6-3-169-166-172-172-3-6-3-17 0-24 2-6 5-9 83-88 45-45 84-83 86-84 2-2 5-3 7-4 6-2 17-2 23 1 6 3 11 9 14 15l3 5 0 29 0 28 139 0 139 1 5 2c6 3 11 8 14 13l2 5v88c0 85 0 89-2 92-3 7-8 11-14 14l-6 3-139 0-138 1 0 28c0 28 0 28-3 33-1 3-3 6-5 8-5 6-14 9-22 9z m-30-101l0-7c1-13 7-22 17-27l7-3 138 0 138-1v-49-50l-139 0-138 0-5-2c-7-4-14-10-16-18-1-2-2-7-2-10l0-7-43 43c-24 24-43 43-43 44 0 0 19 20 43 44z" horiz-adv-x="1000" />

<glyph glyph-name="sol_cheio" unicode="&#xe815;" d="M499 715c-10 0-16-2-22-9-6-7-9-13-9-21 0-9 3-15 8-21 5-5 8-7 14-9 6-2 16-1 22 2 6 2 14 11 16 17 4 11 2 23-6 32-7 7-13 9-23 9z m-240-92c-13 0-23-6-28-17-4-7-5-13-3-21 3-9 5-13 20-27 13-14 18-17 25-20 3 0 7-1 11-1 12 1 22 8 27 18 2 5 2 7 2 14 0 12-2 15-18 32-19 20-24 22-36 22z m484 0c-1 0-2 0-2 0-11-1-16-5-32-20-16-16-20-22-21-32-1-16 10-31 25-34 6-1 7-1 12 0 9 2 13 4 28 19 15 15 19 20 21 28 5 20-11 40-31 39z m-242-16c-13 0-26-1-34-2-31-4-53-11-79-24-53-26-92-65-118-118-13-26-20-48-24-79-3-16-3-51 0-67 2-16 6-31 10-44 31-99 118-169 221-178 76-7 151 20 205 74 41 41 65 89 73 148 3 16 3 51 0 67-4 31-11 53-24 79-26 53-66 93-118 118-26 13-48 20-79 24-8 1-21 2-33 2z m-334-223c-8 0-14-3-21-9-7-6-9-12-9-22 0-10 2-16 9-22 5-5 9-7 16-9 9-2 19 1 26 8 7 7 10 12 10 23 0 10-3 16-10 22-6 6-12 9-21 9z m667 0c-9 0-15-3-21-9-7-6-10-12-10-22 0-10 3-16 10-22 5-5 9-7 15-9 9-2 19 1 27 8 7 7 9 12 9 23 0 10-2 16-9 22-7 6-13 9-21 9z m-115-221c-5 0-10-1-14-3-12-6-19-20-17-33 2-10 5-14 20-29 14-14 18-17 26-20 9-3 23 1 31 8 6 6 9 13 9 22 0 13-2 16-20 34-7 7-16 15-18 16-5 4-11 5-17 5z m-436 0c-6 0-11-2-17-5-2-2-11-9-18-16-11-12-14-15-17-20-2-6-3-8-3-15 0-6 1-8 3-13 4-7 11-14 18-16 4-1 8-2 9-2 5 0 14 3 19 6 7 4 32 30 34 35 8 17 1 35-15 43-4 2-9 3-13 3z m216-112c-10 0-16-2-22-9-6-7-9-13-9-21 0-8 3-14 8-21 5-5 8-7 14-9 6-2 16-1 22 2 6 2 14 11 16 17 4 12 2 23-6 32-7 7-13 9-23 9z" horiz-adv-x="1000" />

<glyph glyph-name="doacao_vazio" unicode="&#xe816;" d="M410 687c-23 0-45-7-63-22-24-20-38-44-41-72-5-37 10-68 50-108 19-19 32-30 89-75 19-15 46-39 50-45 1-1 0-1-19-1-25 0-45-1-52-3-2-1-11-4-18-8-29-12-42-20-58-34l-10-9-8 8c-29 27-68 61-122 107-18 15-37 31-42 35-10 10-14 12-24 12-9 0-15-3-21-9-9-10-8 2-8-131v-116l2-4c1-3 3-6 4-8 3-2 156-137 172-151 4-3 13-9 19-13 20-14 38-21 60-25 2 0 51 0 110 0l107 0 13 7c18 9 42 22 63 35 66 40 115 83 173 152 23 29 45 56 47 60 5 8 7 26 5 38-1 2-3 8-5 12-7 15-22 28-40 32-7 2-29 3-37 2-14-2-29-9-51-21-10-5-12-7-31-24-26-22-35-30-53-40-22-13-35-20-62-30l-15-6-25 0c-14 0-26 0-25 0 1 1 8 2 23 3 16 1 30 4 41 9 25 9 42 27 47 50 4 13 2 31-5 45-7 13-13 19-22 22-2 1-21 2-51 2-26 1-53 1-61 1l-13 0 14 14c8 7 29 25 46 39 46 36 59 48 78 66 22 22 33 37 42 55 17 33 13 74-10 104-23 31-54 46-90 45-25-1-52-12-74-29-4-3-8-6-8-6-1-1-3 0-8 3-12 10-26 18-41 24-13 5-28 8-42 8z m179-59c11-1 21-5 30-14 15-15 19-34 11-51-5-9-15-21-30-36-17-17-31-29-70-61-17-13-30-23-31-23 0 0-6 4-12 10-7 5-22 17-32 25-61 48-87 77-90 97-2 15 3 27 14 39 8 8 15 11 24 13 11 2 22-1 37-8 20-10 28-18 46-47 7-12 13-21 14-22 0 0 7 10 14 22 7 12 15 24 18 27 8 9 23 19 36 24 7 3 15 5 21 5z m-417-251c1 0 50-42 72-62 22-19 44-39 63-57 12-11 19-17 21-18 9-4 21-3 29 2 2 1 7 7 12 12 19 24 29 31 60 45l10 4 16 1c20 1 139 0 138-1-1-2-8-5-14-6-2-1-11-2-19-2-23-2-50-8-75-18-56-23-80-40-91-66-3-7-4-17-2-24 2-7 11-16 18-18 6-2 12-2 45 2l29 2 35 0c42-1 67-1 79 0 21 3 66 21 100 42 24 14 36 23 66 49 15 13 17 15 29 21 7 4 15 7 18 8 6 2 16 2 16 1 0-2-31-40-50-62-17-20-54-57-70-71-36-30-83-60-126-82l-10-5-96 0c-105 0-102 0-115 6-8 3-23 13-31 20-3 2-40 34-82 71l-76 66v70c0 38 1 70 1 70z" horiz-adv-x="1000" />

<glyph glyph-name="casa_vazio" unicode="&#xe817;" d="M499 709c-5 0-10-1-15-3-5-2-329-244-334-250-4-5-7-12-8-19-4-19 9-39 28-45 7-2 18-1 25 2 4 1 36 25 154 113 81 61 148 111 149 112 0 0 55-40 150-111 114-86 150-113 155-114 23-9 49 5 53 31 2 11-2 24-10 32-2 2-27 22-56 44l-53 39 0 29 0 30-4 7c-15 30-57 30-71 0-2-4-3-7-3-7 0 0-32 24-71 53-45 33-71 53-74 54-5 2-10 3-15 3z m-1-159c-5 0-11-2-16-4-3-1-41-31-105-83-55-44-103-82-105-84-5-5-9-13-11-20 0-3-1-54-1-170l1-165 2-5c4-11 13-20 24-24 5-1 10-1 72-2 59 0 68 1 73 2 6 2 10 4 16 10 5 5 7 8 10 15 1 5 1 8 1 89l0 83h40 40l0-85 0-84 4-7c4-9 10-15 19-19l6-3h70 70l7 3c11 6 18 14 21 26 1 4 1 35 1 169 0 157 0 166-2 171-1 5-4 10-8 15-1 1-48 39-105 84-71 58-104 83-107 84-5 3-11 4-17 4z m1-91l79-63 79-64v-129-130c0 0-8 0-19 0h-20l0 84-1 85-3 6c-4 8-9 14-15 18-10 6-7 5-103 5l-86 0-6-3c-11-5-19-13-23-24-1-6-1-8-1-89l0-82-20-1-20 0v130 130l75 60c41 33 77 62 80 64z" horiz-adv-x="1000" />

<glyph glyph-name="moeda_cheio" unicode="&#xe818;" d="M501 725c-14 0-29-1-36-2-38-4-78-14-110-28-105-45-182-132-214-242-21-74-18-156 9-230 38-106 124-190 231-226 27-10 58-16 84-18 6-1 13-1 15-2 7 0 49 1 58 2 28 3 56 9 81 17 84 28 156 85 202 161 59 97 70 215 31 322-11 31-28 64-47 90-63 88-159 143-268 154-7 1-22 2-36 2z m-29-132h28 27l0-16 0-16 8-2c41-12 63-47 63-103v-12h-31-32l0 16c-1 17-2 24-7 31-4 6-8 9-15 10-15 4-31 0-37-10-11-17-10-48 4-70 8-14 17-23 47-48 46-39 62-60 70-96 2-13 3-44 0-57-5-25-13-41-28-55-10-9-21-16-35-19l-7-2 0-16 0-15h-27-28v15c0 12 0 16-1 16-31 9-48 22-60 47-8 18-10 29-11 62l0 25h31 32l0-20c0-30 2-39 12-48 6-5 11-7 23-7 11 0 17 2 23 8 8 7 12 21 11 38-1 12-3 19-8 29-8 17-17 27-50 54-20 17-39 35-46 45-18 25-26 49-26 80 0 42 13 73 38 90 6 4 19 10 26 12l6 2v16z" horiz-adv-x="1000" />

<glyph glyph-name="moeda_vazio" unicode="&#xe819;" d="M501 725c-14 0-29-1-36-2-38-4-78-14-110-28-105-45-182-132-214-242-21-74-18-156 9-230 38-106 124-190 231-226 27-10 58-16 84-18 6-1 13-1 15-2 7 0 49 1 58 2 28 3 56 9 81 17 84 28 156 85 202 161 59 97 70 215 31 322-11 31-28 64-47 90-63 88-159 143-268 154-7 1-22 2-36 2z m-1-83c88 0 176-40 233-116 78-104 78-246 0-350-50-67-124-107-208-115-21-2-46-1-68 2-117 18-214 108-240 224-25 112 18 227 109 296 53 40 113 59 174 59z m-28-50v-16-15l-7-3c-28-8-48-27-57-57-4-13-6-24-6-44 0-25 4-40 13-59 11-22 26-39 59-66 11-9 23-19 27-23 20-19 30-38 31-60 1-21-5-36-16-42-8-5-24-5-34-1-9 3-16 13-18 26-1 3-1 15-1 26l0 20h-32-31l0-25c1-17 1-27 2-32 7-35 21-56 47-69 7-3 19-8 22-8 1 0 1-1 1-15v-16h28 27l0 16 0 15 7 2c7 2 19 7 27 12 7 5 18 16 22 24 12 19 17 45 16 72-1 22-5 36-13 54-11 21-26 38-61 67-31 25-42 38-50 54-6 13-8 31-5 45 3 19 13 29 32 29 16 0 26-7 31-21 1-5 2-10 2-22l0-16h32 31l0 16c-1 26-4 42-12 58-11 20-29 34-51 41l-8 2 0 15 0 16h-27z" horiz-adv-x="1000" />

<glyph glyph-name="editar_vazio" unicode="&#xe81a;" d="M768 609c-4 0-9 0-12-1-14-6-22-20-19-36 1-2 1-3 0-3 0 0-3 1-6 1-16 3-33-6-41-20-1-3-22-43-46-89-25-46-51-96-58-110-8-15-23-44-34-64-10-20-23-45-28-55-12-22-13-26-12-41 1-6 2-13 6-24 2-9 8-28 13-44 5-16 10-31 11-33 5-9 13-15 22-19 9-3 16-2 46 5 15 3 37 8 50 11 15 3 25 6 28 7 8 4 16 10 19 14 2 2 9 15 16 29 7 13 18 33 24 44 5 11 14 28 19 38 5 9 18 34 29 54 11 20 23 45 29 55 5 10 18 35 29 55 11 21 23 44 27 52 8 15 10 19 10 27 2 10-3 22-10 30-2 2-3 4-3 4 0 0 2 1 5 2 6 2 12 8 15 14 2 4 3 6 3 13 0 7-1 9-3 13-3 7-8 11-20 17-46 25-99 52-102 53-2 1-4 1-7 1z m-43-78l8-3c4-2 13-7 20-11 7-3 18-9 24-13 12-6 38-19 59-30 7-4 13-8 14-8 1-1 3 2-79-153-37-70-54-103-67-129-6-11-11-20-11-20-1 0-14 6-30 14-16 9-44 23-63 33-18 9-33 18-33 18 0 0 4 9 9 18 5 10 13 26 19 36 5 11 14 27 19 37 10 19 38 72 84 159z m-173-339c0 0 117-61 118-61 1-1-1-2-30-8-13-3-28-7-33-8-5-1-14-3-20-4l-10-2-3 8c-1 5-6 21-11 36-5 16-9 30-10 33-1 3-2 6-1 6z m-249-44c-80 0-160 0-165-1-26-4-41-32-29-57 5-10 15-18 25-20 2-1 75-1 171-1l167 0 6 3c16 8 26 26 23 42-3 18-16 30-33 33-4 1-84 1-165 1z" horiz-adv-x="1000" />

<glyph glyph-name="engrenagem_cheio" unicode="&#xe81b;" d="M448 708l-7-3c-8-4-15-11-19-20l-3-6 0-31-1-30-11-4c-35-12-67-31-97-58l-9-8-23 13c-12 7-25 14-27 15-14 5-31 2-42-9-5-6-47-78-49-86-1-4-2-8-1-13 0-7 0-9 3-15 2-4 5-9 8-11 2-2 14-10 29-18 13-8 25-15 25-16 1 0 0-5-1-12-6-37-4-82 5-115 1-1-5-4-23-15-26-15-31-19-36-28-4-11-5-20-2-30 2-5 39-71 45-80 9-12 24-18 39-16 6 1 13 4 39 20 11 6 21 12 21 12 0 0 4-3 8-7 27-22 59-40 93-51l6-2 1-31c0-28 0-31 2-35 5-12 15-21 27-24 4-1 14-1 49-1 47 0 50 0 59 4 5 3 12 10 15 14 5 9 5 10 6 42l0 31 7 2c34 11 61 26 87 47 5 4 10 8 11 9 3 2 0 3 33-16 8-5 17-10 20-11 14-6 32-3 43 8 5 4 6 7 31 50 10 17 18 32 19 35 3 7 3 19 0 25-3 9-9 15-16 20-3 2-15 9-26 16-15 8-19 11-19 12 0 1 1 6 3 11 7 33 8 71 2 104-1 7-1 12-1 12 0 1 12 8 26 16 15 8 26 16 29 18 2 2 5 7 7 11 4 6 4 7 4 17 0 9-1 11-3 15-1 2-11 21-23 41-14 25-22 38-25 41-10 11-27 14-41 9-3-1-15-8-28-15l-23-13-9 9c-29 26-63 46-98 57l-10 4 0 30-1 31-3 6c-3 9-11 16-19 20l-6 3h-50z m49-278c7 0 15 0 19-2 24-6 42-20 53-42 6-11 8-22 8-36 0-14-3-25-9-37-11-20-30-35-53-40-14-3-33-2-47 4-15 5-32 20-39 34-26 46-2 103 49 117 4 1 12 2 19 2z" horiz-adv-x="1000" />

<glyph glyph-name="engrenagem_vazio" unicode="&#xe81c;" d="M522 708c-7 0-15 0-27 0l-47 0-7-3c-8-4-15-11-19-20l-3-6 0-31-1-30-11-4c-36-12-69-32-98-59l-8-7-23 13c-12 7-25 14-27 15-17 7-37 0-47-16-9-14-43-74-44-78-1-4-2-7-1-14 0-7 0-9 3-15 3-5 5-9 9-12 2-2 16-10 29-18 23-14 25-15 25-17-1-2-2-9-3-16-2-12-2-17-2-39 0-26 1-40 6-62l2-9-23-14c-27-15-31-19-36-28-5-11-5-22-1-31 2-6 42-76 46-81 4-5 13-11 19-13 7-1 17-1 23 0 2 1 16 8 30 16l25 15 11-9c13-10 20-15 32-22 16-10 38-21 58-27l6-2 1-31 0-31 3-6c5-11 15-19 26-22 8-2 91-2 99 0 12 3 21 11 26 22l3 7 1 30 0 31 7 2c35 12 67 30 93 52 4 3 7 6 7 6 0 0 12-7 25-14 13-8 26-15 29-16 6-3 17-3 24-1 7 2 16 8 20 14 5 7 45 76 46 81 2 6 2 17 0 24-1 6-7 15-12 19-2 1-14 8-26 15-13 8-23 14-23 15 0 0 1 6 3 12 7 33 8 69 2 103-2 11-2 12 0 13 1 1 12 7 25 15 27 15 32 19 37 30 2 5 3 6 3 16 0 9-1 11-2 15-2 2-12 21-24 41-23 40-25 44-36 48-8 4-15 5-23 4-8-1-9-2-36-17l-22-13-7 6c-31 29-62 47-99 60l-11 4 0 30c-1 29-1 31-3 35-4 12-14 20-25 24-4 1-7 1-27 1z m-25-119c8 0 15-3 21-9 7-6 9-11 10-23l0-10 3 0c30-5 61-19 86-37 10-8 27-24 35-34l5-6 6 3c6 3 7 3 14 3 6 0 8 0 13-3 11-5 17-14 17-27 0-11-5-19-16-26-3-2-5-4-6-4 0 0 1-3 3-7 6-18 9-42 8-65-1-21-3-36-10-57l-3-9 2-1c2-1 4-3 7-4 19-13 16-42-6-52-4-2-6-3-13-2-7 0-8 1-14 4l-6 3-4-4c-21-25-51-46-82-58-10-3-32-9-36-9-2 0-2 0-2-10 0-14-5-24-16-30-4-2-6-2-13-3-9 0-12 1-19 6-8 5-12 15-12 28 0 7-1 8-3 8-22 5-37 9-55 18-25 12-50 31-66 51-1 2-3 3-3 3-1 0-3-1-6-3-8-4-13-5-20-4-11 1-19 6-24 16-2 5-3 6-3 13 0 13 5 20 17 27 3 2 6 4 6 4 0 0-1 3-2 6-4 9-8 28-9 40-4 27-1 58 6 82 1 4 2 8 2 9 0 0-3 2-6 3-10 7-16 16-16 27 0 12 6 22 17 27 5 3 7 3 13 3 6 0 8 0 14-3l7-4 2 2c3 5 12 15 20 23 26 26 61 44 98 51 5 1 9 2 9 2 0 0 1 5 1 10 0 9 1 11 3 15 5 11 16 17 26 17z m0-129c-25 0-50-9-71-27-26-22-40-58-37-92 5-49 39-87 87-97 13-3 36-2 48 1 20 5 35 14 50 28 22 21 33 47 33 77 0 30-11 56-31 77-22 22-50 33-79 33z m1-60c11 0 18-2 27-8 26-18 30-54 8-76-7-7-15-12-24-14-17-4-35 2-47 15-9 10-14 20-14 34 0 13 5 25 15 35 9 9 21 14 35 14z" horiz-adv-x="1000" />

<glyph glyph-name="envelope_cheio" unicode="&#xe81d;" d="M488 666c-357 0-377 0-380-2-2-1-4-3-5-5-2-4-2-6-2-98l0-94 3-1c2-1 52-13 110-28 284-72 273-69 291-70 10-1 18-1 31 1 10 2 16 3 56 14 40 11 109 30 223 62 23 6 51 14 61 17l20 5 0 93c1 80 1 94 0 97-2 5-7 7-20 8-7 0-180 1-388 1z m-386-279c-1 0-1-19-1-169 0-133 1-170 2-173 3-8 8-13 17-14 8-2 750-2 756 0 14 2 19 9 21 25 1 6 0 330-1 331 0 0-12-2-25-6-39-9-310-78-321-81-16-4-24-5-43-4-20 0-30 2-59 9-12 3-46 11-75 18-29 7-63 15-75 18-30 7-96 23-151 36-24 5-44 10-45 10z" horiz-adv-x="1000" />

<glyph glyph-name="entra_cheio" unicode="&#xe81e;" d="M580 766c-208 0-215 0-221-2-7-2-12-5-18-11-5-6-8-11-10-18-2-8-2-180 0-188 5-18 22-31 40-31 15 0 30 8 36 21 6 11 6 10 6 81v64h167 166v-333-334h-166-167v64c0 39 0 66-1 69-2 11-9 22-18 27-14 9-34 9-47-1-9-6-14-15-16-25-1-4-1-28-1-95l0-91 4-7c5-12 16-20 28-23 9-2 425-2 434 0 12 2 21 8 27 18 7 11 7-28 6 400l0 384-3 7c-6 11-15 19-27 22-4 2-41 2-219 2z m-84-136c-4 0-9-1-13-3-7-3-12-8-15-15l-3-6 0-71 0-71-134 0-133-1-6-2c-7-3-13-10-16-16l-2-5v-91-91l2-5c4-8 8-12 15-15l6-3 134 0 134-1 0-71 0-71 2-5c4-8 12-16 21-19 1 0 6 0 10 0 7 0 12 2 19 7 2 1 33 48 89 131 69 104 86 130 87 134 2 7 1 16-2 22-3 6-168 254-172 258-6 7-14 10-23 10z" horiz-adv-x="1000" />

<glyph glyph-name="entra_vazio" unicode="&#xe81f;" d="M580 766c-211 0-215 0-221-2-14-4-24-15-28-29-1-4-1-21-1-94 0-97 0-94 5-103 2-6 10-13 15-17 6-3 15-5 21-5 20 0 37 14 41 34 1 3 1 29 1 69v63h167 166v-333-334h-166-167v64c0 41 0 65-1 69-4 21-24 36-46 33-15-1-28-11-34-26-2-4-2-8-2-96 0-80 0-91 1-96 4-15 16-27 31-30 9-2 426-2 434 0 16 3 28 15 32 29 2 5 2 47 2 387 0 320-1 382-2 386-3 14-15 26-29 29-4 2-41 2-219 2z m-83-136c-10 0-16-2-23-9-4-5-6-7-7-12-2-6-2-8-2-76v-69l-134 0-133-1-6-2c-7-3-13-10-16-16l-2-5v-91-92l2-4c3-7 8-12 14-15l6-3 134 0 135-1 0-71c0-72 0-72 2-76 4-9 11-15 19-18 3-1 7-1 12-1 7 0 12 2 18 6 3 3 174 258 176 264 3 6 3 17 0 22-3 6-170 257-174 262-5 5-13 8-21 8z m31-135l49-73c26-40 48-73 48-73 0 0-22-34-49-74l-48-72 0 34c-1 34-1 35-3 40-2 7-9 13-15 17l-5 2-135 0-134 1-1 52 0 52h133c130 0 132 0 138 2 8 2 15 9 19 17l2 6 1 34z" horiz-adv-x="1000" />

<glyph glyph-name="envelope_vazio" unicode="&#xe820;" d="M131 665l-7-3c-9-4-15-10-19-19l-3-6v-289-289l3-6c6-11 16-19 27-22 4-1 86-1 367-1 396 0 367-1 377 5 6 3 13 11 17 19l3 6 0 285c0 264 0 287-1 292-3 11-11 21-22 26l-6 2h-368z m686-78v-60c0-46-1-59-1-60-154-62-240-91-295-102-10-2-24-3-30-2-47 5-154 41-288 96l-22 9v59 60l318 0z m0-205v-136-137h-318-318v136c0 112 0 137 1 137 0 0 6-3 13-5 93-38 188-71 241-84 53-13 77-13 133 2 50 13 131 40 218 75z" horiz-adv-x="1000" />

<glyph glyph-name="olho_fechado" unicode="&#xe821;" d="M165 392c-2 0-4-1-6-1-27-5-42-31-33-57 3-7 11-20 21-33l7-9-11-12c-15-15-18-20-17-32 0-10 2-16 10-23 8-7 18-10 28-7 8 2 13 5 24 17 6 6 11 10 11 10 1 0 6-4 12-9 7-5 16-12 21-15 5-3 9-7 9-7 0-1-4-7-8-14-10-16-12-23-11-32 0-7 4-14 10-20 12-11 31-10 43 1 3 4 6 8 14 21 4 6 8 12 8 12 1 0 7-2 14-5 8-3 18-7 24-9 5-2 10-4 11-4 0 0-1-7-4-15-5-20-5-30-1-38 3-7 8-12 15-15 5-3 7-3 13-3 10 0 16 3 23 9 5 6 8 11 12 29 2 9 4 17 5 17 0 0 6 0 13-2 8-1 19-2 26-2 6-1 13-2 15-2l3 0 0-14c0-18 1-27 4-33 4-8 13-15 22-17 13-3 28 5 34 17 3 6 5 15 5 33l0 14 3 0c1 0 8 1 15 2 11 1 26 2 40 5l3 0 4-16c5-18 8-25 13-31 7-6 13-9 23-9 6 0 8 0 13 3 7 3 12 8 15 15 2 5 3 6 2 14 0 7 0 12-3 24-3 8-4 15-4 16 0 0 2 2 6 3 7 2 26 9 35 13 3 2 6 3 6 3 1 0 4-5 7-11 16-25 20-29 32-32 18-4 36 9 38 27 1 10-1 16-11 33l-10 15 9 6c5 3 13 10 20 15 6 5 11 9 12 10 1 0 4-2 13-11 14-14 17-16 24-18 11-3 21 0 29 7 8 7 10 13 10 23 1 12-2 17-17 33-7 6-13 12-13 13 0 0 3 4 6 7 20 25 26 39 23 54-2 14-10 26-23 32-6 3-8 3-15 4-18 0-29-6-42-24-49-70-130-119-222-135-27-5-39-5-73-6-33 0-41 1-67 5-63 9-120 34-169 73-11 8-37 35-46 45-3 4-9 12-12 17-11 16-20 23-34 25-2 0-4 1-6 1z" horiz-adv-x="1000" />

<glyph glyph-name="olho_aberto" unicode="&#xe822;" d="M504 559c-76 1-149-15-213-46-63-31-119-79-154-131-10-15-11-19-11-32 0-13 1-17 11-32 35-52 91-100 154-131 56-27 115-42 187-46 29-1 72 1 103 6 98 16 182 59 246 125 22 23 43 51 47 63 3 9 3 21 0 30-6 17-39 58-69 84-68 60-153 97-248 107-18 2-35 3-53 3z m-4-85c18 0 37-1 47-2 18-2 41-6 43-7 4-2 15-12 21-20 17-20 28-42 33-67 3-14 3-40 0-53-3-19-12-40-22-56-9-13-25-30-32-33-2-2-26-6-43-8-12-1-63-2-74-1-21 1-45 4-58 7-5 1-7 2-12 7-23 20-41 52-47 84-3 13-2 39 0 53 5 24 16 47 33 67 7 9 17 18 21 20 4 1 25 5 43 7 10 1 29 2 47 2z m0-30c-12 0-16-1-23-3-34-9-59-34-68-68-2-7-3-10-3-23 0-12 1-15 3-23 10-38 39-64 78-70 9-2 26-1 36 2 34 8 59 34 68 68 3 7 3 11 3 23 0 14-1 23-6 34l-2 4-2-5c-6-14-22-23-37-22-17 2-30 12-35 28-6 18 3 38 20 46l5 2-4 1c-9 4-19 6-33 6z m197-21c2 0 29-19 38-26 21-16 47-43 47-47 0-2-15-19-28-31-14-13-26-22-42-33-12-8-16-10-16-9 0 0 1 3 2 6 8 21 11 41 11 67 0 26-3 46-11 67-2 6-2 6-1 6z m-394 0c1 0 0-3-1-6-8-21-11-41-11-67 0-26 3-46 11-67 1-3 2-6 1-6 0 0-15 9-23 15-19 14-42 35-55 50l-7 8 7 8c13 16 36 36 55 50 8 6 23 15 23 15z" horiz-adv-x="1000" />

<glyph glyph-name="namaste_vazio" unicode="&#xe823;" d="M502 720c-11 0-23-1-31-2-57-10-106-50-127-104-25-62-12-132 34-180 16-16 30-26 50-36 17-8 36-13 54-15 10-2 27-2 37-1 58 7 107 41 133 92 11 23 17 45 18 70 1 29-4 54-17 81-25 53-75 88-133 95-5 0-11 0-18 0z m-2-50c37 0 73-17 96-48 16-21 24-44 24-71 0-31-11-59-33-82-17-18-39-30-63-35-26-5-51-2-76 11-12 6-22 13-32 23-14 14-23 29-28 46-8 24-8 54 1 77 12 34 40 62 74 73 12 4 25 6 37 6z m-200-143c-8 0-12-3-25-17-62-67-107-146-125-217-8-32-11-65-9-93 2-33 6-47 15-59 14-16 42-28 79-31 37-3 85 1 150 12 32 6 79 16 87 19 5 2 9 6 11 11 1 4 1 5 0 97 0 55-1 95-2 98-1 6-6 12-13 16-6 3-16 4-24 1-29-9-74-59-89-100l-2-5-16 0c-12-1-17 0-17 0 0 2 9 19 15 27 3 4 8 11 11 15 7 9 32 34 48 49 13 12 17 17 17 24 0 5-2 10-5 13-2 2-7 5-13 8-6 3-13 6-16 9-31 21-51 56-57 101-1 7-1 10-4 13-3 6-9 9-16 9z m400 0c-4 0-7-1-9-2-6-3-9-8-10-16-5-27-9-40-17-57-13-27-34-48-60-58-10-5-15-11-15-21 0-6 3-10 23-29 31-29 45-44 56-62 5-9 12-21 12-23 0 0-6-1-17 0l-16 0-2 7c-6 14-14 27-26 44-21 29-45 49-64 54-14 4-29-1-35-12-2-5-2-1-3-110-1-95-2-90 4-96 4-4 7-5 21-8 57-14 119-24 173-28 11-1 53 0 62 2 14 1 30 6 39 10 21 8 34 23 39 41 4 19 6 59 3 83-7 71-39 145-93 216-19 26-46 57-54 62-3 2-7 3-11 3z m-412-62c0 0 1-2 2-5 3-13 15-37 27-53 7-9 24-26 33-32 3-3 6-5 6-5 1 0-6-7-15-16-8-8-19-19-23-25-17-20-31-44-42-73-6-15-7-19-4-25 2-4 7-9 11-11 1 0 22-1 47-1 38 0 45 1 48 2 7 3 11 9 12 19 2 17 19 45 41 67l11 11 1-15c0-9 1-41 1-72l1-56-4-1c-2 0-12-3-23-5-46-10-90-16-128-19-15-1-43-1-56 0-25 3-45 10-49 20-3 6-5 26-5 47 0 25 2 40 9 66 14 56 44 113 91 172 4 6 8 10 8 10z m424-1c2 0 8-8 21-26 55-72 85-146 87-213 1-23-2-52-6-57-6-8-18-13-39-17-10-1-52-2-67-1-27 2-63 7-94 13-17 3-48 9-55 11l-3 1 0 54c0 29 1 61 1 71l1 18 9-8c22-22 41-52 43-70 2-11 5-16 12-19 3-1 10-2 48-2 26 0 46 1 47 1 4 2 10 8 11 12 3 6 2 11-4 25-11 28-25 53-42 72-4 5-14 16-23 25-9 9-15 16-15 16 5 2 25 20 35 31 14 18 22 33 33 63 0 0 0 0 0 0z m-212-342c-4 0-10-2-24-6-63-17-104-22-162-22-16 0-19-1-22-2-3-1-5-3-6-4-3-2-6-10-6-14 0-4 11-39 16-52 5-12 14-31 17-34 1-1 4-3 6-4l3-2 88-1c186-1 253-1 256 1 5 1 8 4 14 12 6 11 18 31 22 39 11 25 12 40 2 51-6 6-11 8-26 8-14 1-23 2-47 5-51 7-111 18-122 23-3 1-5 2-9 2z m-3-41c3-1 6-1 14-3 32-8 102-20 151-25 3 0 5-1 5-1 0-2-10-19-15-26l-3-6-103 1c-57 0-126 0-155 0l-51 0-4 9c-5 10-10 23-9 23 0 1 9 1 20 2 33 1 57 4 87 10 14 3 50 12 59 15 2 0 3 1 4 1z" horiz-adv-x="1000" />

<glyph glyph-name="lupa_cheio" unicode="&#xe824;" d="M390 682c-19 0-39-2-59-7-36-9-70-28-98-56-89-86-91-229-3-317 36-36 82-58 133-64 15-1 43-1 58 1 32 5 63 17 89 34 6 5 12 8 12 7 2-8 4-12 6-16 4-5 206-207 211-210 2-1 6-3 9-4 4-1 7-2 14-1 8 0 9 0 15 3 21 10 28 35 18 55-2 4-26 28-106 108-98 98-105 104-110 107-4 2-8 3-10 3l-3 1 8 12c19 29 32 65 35 102 2 14 1 39-1 52-11 74-57 135-123 168-30 14-62 22-95 22z" horiz-adv-x="1000" />

<glyph glyph-name="lupa_vazio" unicode="&#xe825;" d="M388 682c-12 0-23-1-31-2-48-7-90-27-124-60-35-35-58-79-65-128-18-121 65-234 187-253 15-2 52-2 66 0 19 3 33 7 50 14 15 6 34 16 45 25 3 2 5 4 6 4 0 0 0-2 1-4 0-2 1-6 3-9 3-6 12-16 104-108 56-55 103-103 106-105 3-2 8-5 11-6 9-3 21-2 29 2 17 7 26 25 23 42-2 14 3 8-109 120-66 66-103 103-107 106-3 2-8 4-11 5-3 1-5 1-5 1 0 1 3 5 7 11 13 20 23 43 29 67 6 22 7 30 7 55 0 24-1 31-5 49-15 66-58 121-119 151-23 11-43 18-68 21-8 1-19 2-30 2z m-2-80c11 1 22 0 30-2 30-6 54-20 76-42 14-15 25-33 31-52 6-17 7-23 7-42 1-15 1-19-1-28-10-58-53-103-111-117-11-2-43-3-54-1-60 11-106 57-117 117-2 7-2 13-2 26 0 18 2 28 7 44 16 49 59 86 111 96 6 1 14 1 23 1z" horiz-adv-x="1000" />

<glyph glyph-name="logotipo_decoreba" unicode="&#xe826;" d="M613 835c-68-18-186-75-248-123-109-82-235-236-292-355-37-78-36-120 4-146 30-20 52-4 74 55 41 102 126 218 244 332 101 97 147 130 109 78-29-42-143-235-201-343-75-140-128-254-128-279 0-24 47-80 57-69 5 4 34 58 67 121 76 141 173 303 257 427 36 54 64 104 64 113 0 23-24 62-44 73-16 8-16 9-3 19 26 19 107 41 136 37 81-11 122-96 98-207-24-118-112-262-241-396-132-136-262-222-340-223-31-1-38 2-62 25-26 26-40 59-40 101 0 22-1 23-33 23-25 0-37-4-58-22-35-31-35-68-2-124 100-167 364-99 619 160 165 169 278 374 280 512 1 75-17 124-61 168-58 58-143 72-256 43z m2130-180c-57-112-211-366-270-445-28-37-66-80-85-97-39-34-99-66-122-66-24 0-40 19-40 46 0 22 3 25 37 37 87 31 201 132 241 213 18 38 19 77 0 99-11 15-20 18-57 18-86-1-191-71-267-180-75-105-119-157-155-181-33-22-61-29-61-17 0 13 46 74 113 151 95 108 122 149 119 179-2 15-9 29-21 38l-18 13-72-47c-78-51-100-60-67-27 12 14 21 33 24 52 3 27 1 32-24 56-25 26-28 28-35 14-5-7-25-37-44-66-25-38-35-61-37-82 0-15-6-36-14-46l-12-17 0 18c0 19-6 42-27 100-21 61-79 67-172 18-65-34-140-113-176-184-15-30-26-58-26-65 0-17-90-99-132-120-47-24-66-25-84-5-10 11-12 22-9 54 6 54 44 122 106 187 42 45 106 88 116 78 2-2 0-16-6-30-8-24-8-28 3-39 17-17 33-6 55 34 20 40 21 73 2 96-11 15-20 18-57 18-105-1-227-98-313-249-41-73-154-164-204-164-23 0-40 19-40 46 0 22 3 25 37 37 88 31 201 132 241 213 18 38 19 77 1 99-12 15-21 18-58 18-148-1-345-217-345-379 0-36 4-52 17-71 45-68 180-52 280 34l39 34 0-22c0-32 29-70 62-81 67-22 159 5 235 70l45 38 5-22c12-55 76-94 138-84 70 12 167 95 214 185 16 30 29 46 38 46 8 0 25 17 42 42 39 54 52 65 83 69l26 3-32-34c-128-132-178-256-122-304 38-33 111-11 192 56l52 44 0-24c0-14 8-36 17-50 45-68 180-52 280 33l38 33-8-27c-6-25-6-28 13-43 23-19 66-23 71-8 2 7 7 5 18-5 60-52 203 15 303 141 24 31 45 56 46 58 1 1-5-19-13-46-24-80-6-138 51-162 34-14 70-3 124 38 24 18 46 32 49 32 2 0 4-10 4-21 0-54 63-75 126-44 43 22 115 93 174 173 52 68 57 80 42 95-17 17-32 8-65-37-61-85-144-163-159-148-2 3 15 42 37 88 41 82 42 85 32 109-6 13-14 27-19 30-6 4-3 8 8 14 33 16 34 98 2 135-15 17-21 19-66 19-43 0-57-4-95-25-57-31-121-88-163-147-18-25-37-50-42-57-5-7 0 8 10 34 24 61 26 125 6 153-22 29-64 41-105 31-17-4-41-13-53-19-12-7-23-10-24-9-2 2 27 50 63 107 74 121 78 135 40 173-43 44-54 37-101-53z m-973-278c-28-24-40-48-40-83 0-44 8-45 49-5 30 30 31 30 31 14 0-26-39-106-74-152-16-22-45-49-63-61-114-72-131 56-27 202 35 49 98 98 124 98 15-1 15-1 0-13z m1455 4c5-5 9-20 9-35 0-24-2-27-19-23-12 2-18 0-18-7 0-5-11-33-25-61-41-85-149-190-182-176-28 10-5 89 49 170 69 104 154 165 186 132z m-2086-7c0-17-47-80-83-111-39-35-106-74-112-67-7 7 47 84 86 123 20 19 50 42 67 49 36 17 42 18 42 6z m1314 0c0-17-47-80-83-111-39-35-106-74-112-67-7 7 47 84 86 123 20 19 49 42 67 49 36 17 42 18 42 6z m378-22c3-24-32-92-73-144-98-125-196-171-196-92 0 26 59 138 91 171 42 45 130 91 165 86 5 0 11-10 13-21z" horiz-adv-x="3445" />

<glyph glyph-name="casa_cheio" unicode="&#xe827;" d="M499 709c-5 0-11-1-16-3-6-3-329-245-333-250-7-9-10-21-8-31 2-16 14-29 30-33 6-2 16-1 23 2 4 1 36 25 155 114l149 112 149-112c82-62 150-113 153-114 20-8 43 0 52 21 3 5 3 7 3 16 0 9 0 10-3 16-1 3-5 8-7 10-2 2-27 22-56 44l-53 39 0 29 0 30-3 6c-10 20-33 29-53 20-7-4-16-12-19-19-2-4-3-7-3-7 0 0-32 23-70 52-38 29-71 53-74 54-5 2-10 4-16 4z m0-159c-6 0-12-2-17-4-8-4-209-165-213-171-2-2-5-7-6-10l-2-5-1-165c0-120 0-165 1-169 3-14 13-26 26-31 5-1 7-1 74-1l69 0 6 2c6 3 15 11 19 18 5 10 5 9 5 97l-1 81h40 40l0-85 0-84 4-7c4-9 10-15 19-19l6-3h70 70l7 3c9 5 15 11 19 20l3 6 0 167c0 164 0 167-2 173-3 12 0 9-111 98-57 46-106 84-108 85-6 3-12 4-17 4z" horiz-adv-x="1000" />

<glyph glyph-name="award-empty" unicode="&#xe828;" d="M241 239q53 0 112 20l0-356-112 113-111-113 0 356q58-20 111-20z m1 558q92 0 157-66t65-158-65-157-157-65-158 65-66 157 66 158 158 66z m0-335q45 0 78 33t33 78-33 79-78 33-79-33-33-79 33-78 79-33z" horiz-adv-x="482" />

<glyph glyph-name="simbolo_decoreba" unicode="&#xe829;" d="M68 847c-32-9-56-34-65-66-3-12-3-60-3-437l1-423 5-12c10-25 28-43 53-53l12-5 447 0 446 0 12 5c25 10 43 28 53 53l5 12 0 429 0 429-5 12c-10 25-28 43-53 53l-12 5-442 0c-384 1-443 0-454-2z m677-145c8-6 16-24 16-37 0-22-13-33-29-24-4 3-8 4-9 4-3-3-1-14 2-17 11-9 19-6 45 17 42 38 76 53 107 47 31-6 57-25 69-51 25-50 9-114-42-169-27-29-71-50-105-50-16 0-18-3-7-14 10-10 29-16 54-18 16-1 21-2 23-6 5-7-2-14-22-22-58-23-98-54-127-99-18-25-32-55-59-116-23-54-29-65-44-89-24-36-54-58-85-60-31-3-62 11-71 34-3 7-3 8 1 10 25 15 45 36 50 55 6 18 2 31-13 46-20 20-51 26-89 16-28-7-47-18-99-59-58-46-91-64-129-70-29-5-59 6-73 26-6 8-7 11-7 24 0 11 1 17 5 25l5 10 16 2c45 7 68 32 64 70-1 10-18 65-22 71-1 0-6-4-12-10-15-14-27-21-49-28-16-6-29-7-31-4 0 1 5 6 12 12 28 25 52 59 61 88 3 7 6 24 8 37 5 33 7 41 17 64 28 58 81 89 153 89 32 0 60-5 105-18 22-6 30-8 33-6 8 4 8 1-1-13-12-18-25-45-32-66-4-14-5-22-5-44 0-26 0-28 7-42 8-17 24-36 36-42 5-2 15-6 23-7 17-4 75-5 75-1 0 1-2 2-4 2-9 0-40 10-59 19-65 31-81 89-45 164 10 22 19 36 32 52 5 5 14 20 21 34 21 41 40 55 75 57 25 2 44-2 105-22 28-9 58-18 68-20 23-4 55-4 70 0 27 8 41 33 29 53-10 16-30 17-57 3-55-29-64-32-87-26-25 8-41 31-37 56 2 21 19 47 40 60 12 7 17 8 24 3z m-27-529c4-10 10-24 13-30 13-23 36-50 60-70 10-8 18-17 18-19 0-7-11-22-22-29-18-12-29-16-51-16-18 0-21 1-32 6-16 8-27 20-33 37-4 10-5 16-5 36 0 21 1 27 6 42 9 26 32 65 37 64 1-1 6-10 9-21z m-305-35c-1-4-2-16-2-29 0-34 10-62 28-79 4-3 6-7 6-8 0-5-17-18-29-22-14-5-53-6-66-1-20 7-34 28-34 52 0 16 3 26 15 41 16 21 62 52 77 52 6 0 7-1 5-6z m252 395c-9-9-9-16-1-18 11-2 32-13 43-21l10-8 1 8c5 26-10 47-34 47-10 0-12-1-19-8z" horiz-adv-x="1035" />

<glyph glyph-name="qr_cheio" unicode="&#xe82a;" d="M290 685c-84 0-88 0-94-2-7-2-13-5-18-11-5-6-8-10-10-17-1-5-1-15-1-94 0-62 0-91 1-94 1-8 5-15 11-21 6-6 12-10 20-11 14-4 28 0 39 11 6 6 9 13 11 21 1 3 1 20 1 51 0 52 0 54 6 63 3 6 9 12 15 16 9 5 11 5 62 5 49 0 52 0 61 4 6 4 15 12 18 19 8 16 5 35-8 48-6 6-13 10-20 11-4 1-32 1-94 1z m422 0c-62 0-90 0-94-1-7-1-14-5-20-11-17-17-17-42 0-59 6-6 13-9 20-11 4-1 21-1 51-1 50 0 53 0 62-5 6-4 12-10 15-16 6-9 6-11 6-63 0-31 0-48 1-51 2-8 5-15 11-21 6-6 12-10 20-11 14-4 28 0 39 11 6 6 10 13 11 21 1 3 1 32 1 94 0 79 0 89-1 94-2 7-5 11-10 17-6 6-11 9-19 11-5 2-10 2-93 2z m-336-105c-78 0-79 0-84-2-7-3-15-11-18-18-2-5-2-6-2-85 0-79 0-80 2-85 3-7 11-15 18-18 5-1 6-1 84-2 79 0 80 0 85 2 7 3 15 11 18 18 2 5 2 6 2 85 0 79 0 80-2 85-3 7-11 15-18 18-5 2-6 2-85 2z m250 0c-78 0-79 0-84-2-7-3-15-11-18-18-2-5-2-6-2-85 0-79 0-80 2-85 3-7 11-15 18-18 5-1 6-1 84-2 79 0 80 0 85 2 7 3 15 11 18 18 2 5 2 6 2 85 0 79 0 80-2 85-3 7-11 15-18 18-5 2-6 2-85 2z m-250-249c-78 0-79 0-84-2-7-3-15-11-18-18-2-5-2-6-2-85 0-79 0-80 2-85 3-7 11-15 18-18 5-2 6-2 84-2 79 0 80 0 85 2 7 3 15 11 18 18 2 5 2 6 2 85 0 79 0 80-2 85-3 7-11 15-18 18-5 2-6 2-85 2z m210 0c-38 0-40 0-45-2-7-3-15-11-18-18-1-5-2-7-2-25v-19h52 52v32 32z m83 0v-32-32h-22-21v-43-42h52 52v62c0 61 0 62-2 67-3 7-11 15-18 18-5 1-7 2-23 2z m-461-64c-10 0-21-5-29-13-6-6-10-13-11-20-1-4-1-32-1-94 0-80 0-90 1-95 2-7 5-11 10-17 5-6 11-9 18-11 5-2 11-2 94-2 62 0 90 0 94 1 7 2 14 5 20 11 17 17 17 42 0 59-6 6-13 10-20 11-4 1-21 1-51 1-51 0-53 0-62 6-6 3-12 9-15 15-6 9-6 11-6 63 0 31 0 48-1 52-2 7-5 14-11 20-9 8-19 13-30 13z m586 0c-11 0-21-5-30-13-6-6-9-13-11-20-1-4-1-21-1-52 0-52 0-54-6-63-3-6-9-12-15-15-9-6-12-6-62-6-49 0-52 0-61-4-6-3-15-12-18-19-8-16-5-35 8-48 6-6 12-9 19-11 4-1 27-1 94-1 85 0 89 0 94 2 8 2 13 5 19 11 5 6 8 10 10 17 1 5 1 15 1 95 0 62 0 90-1 94-1 7-5 14-11 20-9 8-19 13-29 13z m-273-85v-18c0-16 1-18 2-23 3-7 11-15 18-18 5-1 7-2 44-2l40 0v30 31h-52z" horiz-adv-x="1000" />

<glyph glyph-name="sol_vazio" unicode="&#xe82b;" d="M499 715c-10 0-16-2-22-9-6-7-9-13-9-21 0-9 3-15 8-21 5-5 8-7 14-9 6-2 16-1 22 2 6 2 14 11 16 17 4 11 2 23-6 32-7 7-13 9-23 9z m-240-92c-13 0-23-6-28-17-4-7-5-13-3-21 3-9 5-13 20-27 13-14 18-17 25-20 3 0 7-1 11-1 12 1 22 8 27 18 2 5 2 7 2 14 0 12-2 15-18 32-19 20-24 22-36 22z m484 0c-1 0-2 0-2 0-11-1-16-5-32-20-16-16-20-22-21-32-1-16 10-31 25-34 6-1 7-1 12 0 9 2 13 4 28 19 15 15 19 20 21 28 5 20-11 40-31 39z m-242-16c-13 0-26-1-34-2-31-4-53-11-79-24-53-26-92-65-118-118-13-26-20-48-24-79-3-16-3-51 0-67 2-16 6-31 10-44 31-99 118-169 221-178 76-7 151 20 205 74 41 41 65 89 73 148 3 16 3 51 0 67-4 31-11 53-24 79-26 53-66 93-118 118-26 13-48 20-79 24-8 1-21 2-33 2z m0-83c11 0 22-1 30-2 60-12 108-51 131-107 9-23 12-38 12-64 0-15-1-22-2-29-7-38-24-70-51-96-27-27-63-44-102-48-10-1-28-1-38 0-63 7-117 48-141 108-9 22-13 38-13 65 0 26 3 41 12 64 23 56 71 95 131 107 8 1 19 2 31 2z m-334-140c-8 0-14-3-21-9-7-6-9-12-9-22 0-10 2-16 9-22 5-5 9-7 16-9 9-2 19 1 26 8 7 7 10 12 10 23 0 10-3 16-10 22-6 6-12 9-21 9z m667 0c-9 0-15-3-21-9-7-6-10-12-10-22 0-10 3-16 10-22 5-5 9-7 15-9 9-2 19 1 27 8 7 7 9 12 9 23 0 10-2 16-9 22-7 6-13 9-21 9z m-115-221c-5 0-10-1-14-3-12-6-19-20-17-33 2-10 5-14 20-29 14-14 18-17 26-20 9-3 23 1 31 8 6 6 9 13 9 22 0 13-2 16-20 34-7 7-16 15-18 16-5 4-11 5-17 5z m-436 0c-6 0-11-2-17-5-2-2-11-9-18-16-11-12-14-15-17-20-2-6-3-8-3-15 0-6 1-8 3-13 4-7 11-14 18-16 4-1 8-2 9-2 5 0 14 3 19 6 7 4 32 30 34 35 8 17 1 35-15 43-4 2-9 3-13 3z m216-112c-10 0-16-2-22-9-6-7-9-13-9-21 0-8 3-14 8-21 5-5 8-7 14-9 6-2 16-1 22 2 6 2 14 11 16 17 4 12 2 23-6 32-7 7-13 9-23 9z" horiz-adv-x="1000" />

<glyph glyph-name="info-circled" unicode="&#xe82c;" d="M454 810q190 2 326-130t140-322q2-190-131-327t-323-141q-190-2-327 131t-139 323q-4 190 130 327t324 139z m52-152q-42 0-65-24t-23-50q-2-28 15-44t49-16q38 0 61 22t23 54q0 58-60 58z m-120-594q30 0 84 26t106 78l-18 24q-48-36-72-36-14 0-4 38l42 160q26 96-22 96-30 0-89-29t-115-75l16-26q52 34 74 34 12 0 0-34l-36-152q-26-104 34-104z" horiz-adv-x="920" />

<glyph glyph-name="info" unicode="&#xe82d;" d="M352 850q48 0 74-27t26-69q0-50-39-88t-95-38q-48 0-74 26t-24 72q0 46 35 85t97 39z m-206-1000q-100 0-54 178l60 254q14 56 0 56-12 0-54-18t-72-38l-26 44q90 78 189 126t151 48q78 0 36-162l-70-266q-16-64 6-64 44 0 118 60l30-40q-84-86-175-132t-139-46z" horiz-adv-x="460" />

<glyph glyph-name="cancel-circled" unicode="&#xe82e;" d="M641 224q0 14-10 25l-101 101 101 101q10 11 10 25 0 15-10 26l-51 50q-10 11-25 11-15 0-25-11l-101-101-101 101q-11 11-25 11-16 0-26-11l-50-50q-11-11-11-26 0-14 11-25l101-101-101-101q-11-11-11-25 0-15 11-26l50-50q10-11 26-11 14 0 25 11l101 101 101-101q10-11 25-11 15 0 25 11l51 50q10 11 10 26z m216 126q0-117-57-215t-156-156-215-58-216 58-155 156-58 215 58 215 155 156 216 58 215-58 156-156 57-215z" horiz-adv-x="857.1" />

<glyph glyph-name="logotipo_dekoreba" unicode="&#xe82f;" d="M645 843c-213-39-453-244-571-489-33-68-35-77-20-113 25-59 72-49 94 19 26 82 129 226 239 335 58 57 131 116 131 106 0-3-24-43-53-90-157-251-297-527-287-566 5-20 38-64 48-64 3 0 35 56 72 125 81 151 156 275 250 418 40 59 72 115 72 124 0 19-18 49-43 69l-19 16 41 18c110 50 189 20 212-81 27-120-81-337-256-513-110-111-246-200-319-209-58-8-112 49-112 119 0 31 0 31-26 31-29 0-49-9-74-31-47-43 14-162 99-191 18-6 56-11 84-11 246 0 622 359 710 675 14 49 14 136-1 178-15 46-53 90-96 110-40 18-117 25-175 15z m778-189c-22-43-91-163-153-267-93-157-123-199-168-246-55-56-114-94-151-94-22 0-39 19-39 47 0 20 4 25 28 33 81 28 177 105 229 184 80 119 15 188-121 127-126-57-249-217-257-338-6-67 8-100 50-119 68-30 157-8 245 64l24 20-2-22c-1-16 3-24 23-37 35-25 52-20 64 16 5 16 12 34 14 40 3 7 9 0 20-21 23-47 48-63 98-63 50 0 90 18 152 68l44 37 9-29c17-56 84-90 145-73 73 19 160 97 206 183 13 24 27 44 32 44 5 0 27 25 48 54 31 44 44 55 58 55 11 0 26 2 35 5 9 2-6-17-39-52-67-70-109-133-124-184-41-143 93-158 230-25 16 16 32 30 34 30 2 0 4-10 4-22 0-69 52-108 133-99 56 5 107 29 160 72l42 34-7-22c-8-29-3-41 23-54 26-14 49-14 54 0 4 8 9 7 27-6 54-40 159-3 251 88 26 26 60 65 74 86 14 22 27 40 29 40 1 0-3-13-10-28-44-105-14-199 64-199 36 0 64 13 112 52 35 27 37 28 39 12 4-39 10-50 31-60 46-24 100-5 169 60 50 47 152 180 152 196 0 10-34 31-39 24-1-1-23-29-47-62-67-89-148-157-148-125 0 4 17 41 37 80 40 80 44 104 19 131l-16 19 20 8c20 7 20 9 20 57 0 59-10 78-48 90-93 32-234-66-344-238-5-7 0 6 11 30 14 30 20 61 22 99 3 51 2 57-14 76-25 29-88 35-140 12-20-9-37-15-38-14-1 2 27 50 63 108 36 59 65 112 65 119 0 19-20 54-38 67-34 24-44 16-81-57-37-76-204-354-258-432-70-103-172-186-227-186-22 0-38 19-38 47 0 20 3 25 27 33 48 16 122 64 163 104 100 98 129 192 72 222-44 23-127-4-208-65-40-31-60-53-177-202-44-58-88-97-120-109-52-20-22 34 86 156 119 136 142 184 99 215-21 15-21 15-39 1-28-22-124-81-132-81-4 0 0 8 8 17 40 43 41 78 5 112l-26 24-41-60c-30-45-41-69-44-93-2-18-8-38-12-45-7-10-11-4-22 40-7 29-18 62-23 72-21 41-86 42-166 1-73-36-181-166-198-237-7-26-84-99-125-116-57-26-105-14-124 35-9 20-9 31-3 55 17 62 38 89 119 159 22 19 20 8-3-18-48-54-37-122 23-154 19-10 20-9 29 13 5 13 29 52 52 87 56 86 64 103 64 134 0 20-5 32-22 48-24 25-37 24-97-5-19-10-36-18-38-18-1 0 20 35 47 79 81 129 91 150 86 173-7 27-43 62-65 62-14 0-23-13-57-79z m397-288c-24-22-27-30-30-66-5-51 5-54 44-12 32 34 44 37 38 9-33-132-175-267-226-216-31 31 4 146 69 227 34 44 89 82 115 82 15 0 15-2-10-24z m1471-14c2-33 1-35-15-31-15 4-19-1-37-51-19-50-29-64-89-126-59-60-71-68-89-66-19 2-21 6-23 30-5 62 98 219 176 268 15 9 33 13 49 13 25-2 25-3 28-37z m-2152 19c0-17-46-77-84-111-18-15-53-38-77-52-44-23-44-23-36-7 19 39 74 109 103 133 49 43 94 61 94 37z m1372 0c0-17-46-77-84-111-17-15-52-38-77-52-43-23-44-23-36-7 20 39 74 109 103 133 49 43 94 61 94 37z m378-19c7-65-151-260-223-273-56-10-59 32-11 124 37 69 82 117 136 145 65 33 94 34 98 4z" horiz-adv-x="3511" />

<glyph glyph-name="help" unicode="&#xe830;" d="M494 740q86-62 86-184 0-64-42-124-12-20-88-80l-46-30q-40-34-48-60-6-16-8-44 0-14-16-14l-128 0q-16 0-16 12 4 98 28 124 16 22 48 48t56 42l24 14q22 16 34 34 28 44 28 70 0 40-26 78-28 36-92 36-68 0-94-44-28-42-28-92l-166 0q6 162 114 232 70 42 166 42 130 0 214-60z m-216-636q44 0 73-30t27-74q-2-46-32-73t-74-25q-44 0-73 29t-27 75 32 73 74 25z" horiz-adv-x="580" />

<glyph glyph-name="help-circled" unicode="&#xe831;" d="M454 810q190 2 326-130t140-322q2-190-131-327t-323-141q-190-2-327 131t-139 323q-4 190 130 327t324 139z m-2-740q30 0 49 19t19 47q2 30-17 49t-49 19l-2 0q-28 0-47-18t-21-46q0-30 19-49t47-21l2 0z m166 328q26 34 26 78 0 78-54 116-52 38-134 38-64 0-104-26-68-42-72-146l0-4 110 0 0 4q0 26 16 54 16 24 54 24 40 0 52-20 16-20 16-44 0-18-16-40-8-12-20-20l-6-4q-6-4-16-11t-20-15-21-17-17-17q-14-20-18-78l0-8 108 0 0 4q0 12 4 28 6 20 28 36l28 18q46 34 56 50z" horiz-adv-x="920" />

<glyph glyph-name="award-1" unicode="&#xe832;" d="M241 239q53 0 112 20l0-356-112 113-111-113 0 356q58-20 111-20z m-223 335q0 223 223 223t223-223-223-223-223 223z" horiz-adv-x="482" />

<glyph glyph-name="volume-up" unicode="&#xe833;" d="M0 169l0 360 203 0 307 250 0-858-307 248-203 0z m563 33q62 63 62 151t-62 152l60 65q90-90 92-219 0-125-92-213z m101-105q106 105 106 256t-106 258l66 62q131-133 131-319t-131-321z m100-98q146 147 146 354t-146 353l62 65q82-82 128-190t46-227-46-229-128-190z" horiz-adv-x="1000" />

<glyph glyph-name="left-open-1" unicode="&#xe834;" d="M654 682l-297-296 297-297q10-10 10-25t-10-25l-93-93q-11-10-25-10t-25 10l-414 415q-11 10-11 25t11 25l414 414q10 11 25 11t25-11l93-93q10-10 10-25t-10-25z" horiz-adv-x="714.3" />

<glyph glyph-name="right-open-1" unicode="&#xe835;" d="M618 361l-414-415q-11-10-25-10t-25 10l-93 93q-11 11-11 25t11 25l296 297-296 296q-11 11-11 25t11 25l93 93q10 11 25 11t25-11l414-414q10-11 10-25t-10-25z" horiz-adv-x="714.3" />

<glyph glyph-name="imagotipo" unicode="&#xe836;" d="M5524 845c-16-8-41-35-50-53-25-51 1-100 55-106 22-1 32 2 80 25 36 18 43 21 56 22 12 0 16 0 23-4 14-9 18-29 10-47-12-25-51-38-100-32-28 4-52 10-115 30-85 26-112 31-143 27-49-7-80-38-132-135-37-67-48-101-48-141 0-37 9-62 33-86 23-25 42-36 85-51 36-12 24-15-23-6-60 12-90 34-107 79-8 23-7 59 5 98 3 9 4 17 3 18-1 1-16 2-36 2-41 0-63 3-107 13-60 14-102 17-144 10-71-10-127-52-156-113-10-23-17-46-21-79-7-45-21-82-45-114-5-7-21-24-34-38-14-14-25-27-25-28 0-5 8-5 28-1 25 7 50 19 72 35 13 10 18 13 19 10 4-6 19-49 23-62 14-56-10-92-74-106-11-2-21-5-22-6-6-3-15-27-17-39-3-42 49-82 99-76 45 6 100 36 180 98 63 49 88 64 125 73 29 7 63 6 83-3 26-13 44-35 44-56 0-27-17-53-52-79-17-12-18-13-17-21 4-23 39-46 74-50 40-4 84 18 115 57 22 28 38 58 73 136 33 75 43 94 60 120 32 47 70 87 158 162 39 34 46 38 102 66l47 24 1 10c1 13-1 14-34 17-13 1-30 5-39 8-15 5-32 18-31 24 1 2 8 4 21 5 69 6 147 60 176 121 10 21 19 58 21 83 2 27-4 60-14 80-20 41-71 71-116 66-36-3-69-20-113-59-26-23-33-28-41-28-9 0-18 7-18 15 0 5 1 5 15 1 10-3 12-3 19 0 5 3 10 8 12 13 9 17 0 54-16 69-10 8-13 9-27 2z m-34-217c14-7 22-21 22-39 0-7 0-14-1-14-1-1-10 3-20 9-10 6-24 13-31 16-18 7-21 10-18 18 7 14 29 19 48 10z m-2191 14c-11-4-23-14-30-23-12-17-12-6-12-358 0-223 1-331 3-338 9-37 53-56 88-38 11 6 21 16 29 30 3 4 4 3 16-4 19-12 51-24 79-30 34-7 85-6 118 3 80 22 142 78 173 156 30 76 20 166-27 236-56 82-158 126-256 109-30-6-56-15-97-37-1 0-2 56-2 125l-1 126-7 12c-6 13-16 22-28 29-11 5-34 6-46 2z m261-381c23-7 41-18 58-36 33-33 46-79 36-124-6-25-17-43-37-63-21-21-40-31-66-37-22-5-37-4-59 1-26 7-45 18-63 36-27 26-38 56-38 95 0 19 1 26 6 42 24 68 95 106 163 86z m-2300 377c-18-5-33-18-41-36-4-10-5-14-5-345 0-223 1-337 3-343 7-25 32-43 59-43 25 0 42 10 54 32l7 12 1 84 1 83 104-95c57-53 106-98 110-101 9-7 29-11 43-9 16 2 35 15 43 29 6 9 7 14 8 29 2 31 3 30-109 132-53 49-97 89-97 90 0 1 40 28 88 61 83 56 89 60 97 72 13 22 13 43 0 65-11 18-26 27-48 28-11 1-19 0-26-3-6-2-56-35-111-74l-102-70-1 179-1 179-6 11c-12 26-45 41-71 33z m-1222-4c-5-2-15-8-20-14-19-19-18 8-17-368l0-334 5-10c6-11 18-23 30-28 11-6 64-9 162-9 83-1 93 0 146 18 86 29 162 90 209 171 76 129 70 291-17 414-22 32-67 76-99 97-44 30-91 49-143 60-22 5-33 5-134 6-97 1-112 0-122-3z m242-124c105-27 180-106 200-209 4-22 5-67 1-90-18-111-108-200-221-217-18-3-35-3-81-2l-58 2 0 262 0 261 70-1c60-1 72-2 89-6z m1619-127c-118-18-205-109-218-227-9-74 19-151 73-204 29-29 56-46 92-59 33-13 49-15 90-15 32 0 40 1 60 6 58 15 108 49 143 96 68 92 67 212-3 305-36 47-92 83-149 95-23 5-68 6-88 3z m70-127c21-6 41-18 56-33 18-18 29-36 35-60 6-23 6-41 0-64-15-58-67-98-128-97-45 0-83 21-108 60-14 21-18 37-18 69 0 32 4 48 18 69 32 50 88 71 145 56z m332 124c-14-5-25-16-32-30l-7-13 0-208c0-225-1-215 13-232 3-5 11-11 17-14 26-14 52-10 72 10 19 19 19 19 19 143 0 68 1 111 3 119 5 24 18 47 36 66 26 25 53 36 88 36 31 0 56-10 89-37 26-20 65-14 85 14 13 18 15 42 5 62-14 26-72 63-119 76-24 6-72 9-98 4-24-4-50-12-73-24-10-5-19-9-19-9 0 0-2 3-4 7-4 10-24 27-35 31-12 3-28 3-40-1z m-1418-1c-67-10-129-47-171-103-55-74-65-175-25-258 14-30 27-49 50-72 58-59 138-84 224-71 42 6 84 22 114 42 38 26 49 40 51 66 1 15 0 18-5 30-15 30-50 43-79 29-7-3-17-10-23-15-14-11-44-26-66-30-22-5-52-5-71-1-35 10-67 36-84 70-16 33-35 29 152 29 156 0 162 1 171 5 21 11 36 38 36 66 0 20-5 40-17 66-27 57-67 99-119 124-41 20-95 29-138 23z m77-128c19-8 37-22 49-38l11-14-54-1c-30 0-78 0-108 0l-54 1 17 18c19 19 38 30 60 37 19 5 61 3 79-3z m1972 127c-26-3-50-11-78-24-129-63-180-221-113-348 34-63 91-108 160-127 21-5 29-6 63-6 43 0 63 3 100 15 37 13 78 38 97 60 8 10 15 28 15 39 0 11-8 30-16 39-11 13-24 19-39 21-18 2-30-2-50-17-32-25-67-37-105-37-38 0-69 13-95 40-15 15-29 38-34 57l-1 5 162 0 163 0 11 6c22 11 37 45 34 74-2 17-10 43-20 64-50 99-148 153-254 139z m64-124c17-5 36-15 48-26 11-10 24-27 22-29 0-1-48-1-106-1l-106 1 9 11c9 12 33 31 48 36 25 11 62 14 85 8z m1266 124c-18-7-31-25-33-47l-2-12-16 12c-21 15-54 31-78 38-25 7-79 9-107 4-50-10-87-30-125-66-39-38-63-84-71-138-5-28-5-48 0-75 8-51 29-93 66-131 32-33 67-54 114-67 20-6 26-7 61-7 31 0 43 1 55 5 33 9 61 23 87 42 7 5 13 9 14 9 1 0 2-5 2-11 0-16 3-27 12-37 10-13 22-18 40-18 25 0 43 11 54 32 4 9 4 18 4 219l0 209-5 10c-7 13-22 26-34 29-11 3-30 4-38 0z m-151-126c28-9 52-28 68-53 26-40 26-94 0-134-24-37-62-58-108-58-44 0-83 22-107 58-26 40-26 95 0 134 32 49 94 72 147 53z m1271-162c-26-43-39-82-39-120 0-36 10-62 32-81 21-19 51-25 87-16 31 7 62 29 69 49 2 7 1 7-34 44-52 54-69 77-81 114-8 24-10 27-17 27-5 0-8-3-17-17z m-393-53c-45-21-82-57-92-88-11-38 5-75 41-92 9-5 15-6 38-6 35 0 51 4 69 16 22 14 22 16 6 36-24 31-30 53-31 102 0 19 0 36 0 37-1 6-14 4-31-5z" horiz-adv-x="5824" />

<glyph glyph-name="imagotipo_cima" unicode="&#xe837;" d="M1230 847c-7-4-20-15-27-25-15-19-18-43-8-60 4-7 12-15 19-18 9-4 15-6 26-6 13 0 19 2 48 17 19 10 26 13 31 14 19 4 31-3 32-18 2-17-10-31-32-36-9-2-25-3-37-2-20 3-30 5-89 24-46 14-61 17-80 16-6 0-14-1-17-2-31-8-55-37-91-109-12-24-17-35-20-47-9-39-1-72 24-95 13-12 27-20 53-29 9-3 17-6 18-7 1-1-5-2-16 0-54 7-79 23-91 60-2 7-3 9-3 20 0 14 2 25 7 41 3 13 4 15 1 16 0 0-8 0-17 0-24-1-50 2-75 8-29 7-42 9-67 10-22 0-33-1-49-4-47-12-84-45-99-91-3-11-6-22-8-37-7-45-19-69-53-104-20-21-22-24-9-23 18 2 43 13 61 28 5 3 10 6 10 6 2 0 13-28 16-41 4-13 5-28 2-36-3-9-7-15-13-22-10-9-20-13-42-17-10-2-10-2-14-6-3-4-7-13-9-22-2-11 2-24 13-35 14-14 38-22 59-18 15 2 46 15 64 26 13 8 29 20 56 41 30 24 43 32 57 39 23 11 49 16 69 12 26-5 46-26 44-46-2-18-13-33-35-50-14-10-15-12-10-21 5-9 19-20 33-25 7-2 9-2 21-3 11 0 15 1 21 3 14 4 28 12 40 24 21 19 36 45 65 113 25 56 36 75 63 107 14 16 37 38 77 73 33 28 39 32 77 50 11 5 22 11 25 13 5 3 5 3 6 7 1 6-1 10-4 11-2 1-8 2-15 2-13 1-20 2-28 5-14 4-24 12-24 17 0 2 0 3 12 3 17 2 35 7 51 15 35 19 62 47 74 76 4 9 10 33 11 44 2 18-2 46-9 59-13 26-41 45-70 46-22 1-44-7-67-24-4-3-13-11-20-17-17-15-22-19-27-19-7 0-13 5-13 11 0 3 2 3 7 1 9-4 15-3 21 2 4 4 6 10 6 20 0 10-3 19-8 28-7 11-13 12-24 7z m-24-147c10-5 16-14 16-28 1-12 0-12-13-4-10 6-19 10-24 12-6 2-11 5-12 7-1 4 7 12 13 15 6 1 13 1 20-2z m-67-360c-7-8-21-36-26-51-5-15-6-23-6-40 0-12 0-16 2-22 7-28 27-45 53-46 29-2 62 13 71 33 3 5 3 6 2 8-1 2-12 13-24 26-24 25-31 33-39 46-7 10-12 20-17 35-2 6-5 12-6 13-2 3-6 2-10-2z m-266-41c-24-8-57-36-67-55-7-14-7-34-1-48 6-11 17-20 29-25 7-2 8-2 24-2 24 0 34 2 47 11 6 4 12 10 12 12 0 0-2 4-5 7-9 11-16 23-19 31-5 15-6 20-6 46 0 29 0 28-14 23z m454-137c-2 0-5-2-8-4-6-3-11-10-12-16 0-2 0-63 0-135 0-146-1-137 6-145 5-5 10-7 17-8 5 0 7 0 11 2 6 2 11 7 13 11 0 2 1 3 2 3 0 0 3-2 6-3 7-5 18-9 28-12 7-1 11-2 24-2 13 0 17 1 25 3 30 8 54 28 67 55 17 36 13 78-12 109-31 39-82 50-127 27l-11-5 0 51c0 56 0 52-6 60-4 6-15 10-23 9z m100-154c9-2 17-7 24-14 22-22 22-55 0-76-10-11-22-16-37-16-16 0-27 5-38 16-11 11-16 23-16 38 0 15 5 27 16 38 7 7 16 12 25 14 6 2 19 2 26 0z m-921 151c-6-1-13-6-16-12l-2-4 0-137c0-134 0-138 1-141 5-9 12-14 23-14 8 0 13 2 18 8 6 6 6 7 7 44l0 33 43-39c24-23 44-40 46-41 5-3 13-3 19-1 5 1 13 9 15 15 2 8 1 17-4 23-1 1-18 17-37 35-20 18-37 34-39 36l-2 2 34 23c18 13 34 24 36 25 1 2 4 5 5 7 4 6 4 17 1 22-6 12-20 17-31 13-2-1-22-14-45-30l-41-28 0 72-1 72-3 5c-5 10-16 15-27 12z m-487 0c-7-2-14-7-17-14-1-3-1-8-2-137 0-147 0-139 6-147 1-2 5-4 8-6 5-2 5-2 41-4 47-2 59-1 82 7 52 17 92 63 103 116 4 18 4 41 1 58-10 50-41 91-86 112-18 8-32 12-52 14-10 2-80 2-84 1z m92-51c41-10 73-41 81-82 3-11 3-29 1-41-8-39-37-71-77-82-7-2-11-3-27-3-10 0-23 0-29 0l-11 1 0 105 0 105 27 0c22-1 28-1 35-3z m656-51c-41-3-78-33-89-74-17-57 20-117 79-128 10-2 28-2 38 0 38 7 69 35 79 73 11 36 0 74-28 101-9 9-16 14-28 19-15 8-32 11-51 9z m27-53c13-4 22-13 28-26 17-33-5-72-42-74-16-1-30 4-41 15-10 10-15 22-15 36 0 5 1 11 1 14 5 18 20 33 38 37 8 2 23 1 31-2z m130 51c-7-2-11-5-14-11l-3-5 0-84c0-82 0-84 2-88 3-6 7-9 12-12 14-6 30 1 34 16 1 2 1 20 1 46 0 48 0 50 7 62 9 19 31 30 50 27 10-2 16-5 25-11 9-7 13-8 19-8 16 0 28 15 23 32-2 8-21 23-37 29-13 5-21 7-36 7-18 0-32-3-46-11-3-2-6-3-6-3 0 0-2 2-3 5-3 5-9 9-15 10-6 2-7 2-13-1z m786 0c-7-3-14-12-14-20 0-2 0-3 0-3 0 0-3 2-7 4-8 6-23 13-32 16-16 4-37 3-53-2-57-18-85-83-59-137 15-30 44-51 78-55 24-2 47 4 68 20l5 4 0-7c1-7 4-14 9-17 11-8 27-4 34 9l2 3 0 85 0 85-2 4c-3 5-9 9-14 11-6 2-10 2-15 0z m-64-50c14-3 27-14 33-26 3-7 6-17 6-23 0-2-1-6-2-10-5-24-26-41-50-41-17 0-36 12-44 27-5 8-6 15-6 24 0 5 0 10 1 13 5 18 19 31 36 36 7 2 19 2 26 0z m-1299 48c-58-12-94-71-77-128 10-34 36-60 69-70 35-10 78 0 104 24 11 10 12 24 3 34-5 6-10 9-18 9-7 0-12-2-19-8-6-5-10-7-18-10-24-9-46-4-62 13-6 6-11 15-12 21l-1 3 64 0 65 0 5 2c12 6 17 24 12 41-5 17-14 30-27 43-14 14-29 22-47 26-11 3-30 3-41 0z m31-48c8-1 15-5 21-10 4-4 10-11 10-13 0 0-20 0-43 0-49 0-46-1-36 9 13 13 31 18 48 14z m797 50c-23-4-42-14-59-31-12-13-20-27-25-45-2-8-3-11-3-25 0-14 1-18 2-25 5-18 15-35 28-48 17-17 36-26 61-29 19-2 45 2 63 11 24 13 35 26 31 40-2 11-12 19-24 19-7 0-11-2-18-8-6-5-16-10-25-12-9-3-24-2-33 0-15 6-30 20-34 36l-1 3 63 0c43 0 65 0 68 1 8 2 16 14 17 25 1 11-5 28-15 44-14 22-38 38-64 43-6 1-26 2-32 1z m31-51c10-4 18-10 24-20l1-2-43 0c-31 0-43 0-43 1 0 0 3 4 7 8 8 7 16 12 26 14 8 2 20 1 28-1z" horiz-adv-x="1741" />

<glyph glyph-name="logotipo" unicode="&#xe838;" d="M4239 845c-19-5-36-20-46-39l-8-16-1-427c-1-477-2-449 20-474 15-16 32-24 55-26 15-1 21 0 35 6 18 8 34 23 40 37 2 4 5 8 6 8 1 0 11-5 23-12 25-14 54-26 89-35 22-5 35-6 76-6 42 0 52 1 78 8 96 26 174 89 217 178 59 122 37 265-55 367-24 25-62 54-92 69-99 50-206 48-305-3l-28-14-1 162-1 162-7 15c-13 26-43 45-71 45-6 0-17-2-24-5z m330-489c46-12 90-48 111-90 33-69 20-144-33-197-35-35-73-51-121-51-49 0-86 16-121 51-35 35-50 72-50 121 0 48 16 87 50 120 35 35 70 50 120 50 15 0 35-1 44-4z m-2957 482c-20-7-38-23-46-43-6-15-6-16-6-450 1-424 2-436 7-447 14-29 38-43 72-43 26 0 41 6 57 23 21 21 21 24 23 141l1 106 136-126c79-71 142-127 149-131 15-7 40-8 59-2 18 5 43 30 49 47 7 26 3 54-11 74-4 5-59 58-123 116-63 58-118 109-122 112l-7 7 112 76c63 43 115 80 121 87 27 33 23 80-11 109-21 19-51 25-77 15-7-2-71-45-144-95l-131-90-1 230-2 230-7 15c-9 18-28 35-48 40-19 6-30 6-50-1z m-1561-2c-9-3-19-9-28-18-25-25-23 11-23-466 0-466-1-443 18-466 6-6 17-15 26-19 16-8 18-8 132-13 150-6 189-3 263 22 238 79 380 326 329 572-9 43-20 72-43 119-70 141-197 236-357 267-39 7-295 9-317 2z m273-154c146-18 266-131 292-274 6-31 7-89 2-118-24-133-122-239-252-272-29-8-110-11-172-7l-38 2 0 336 0 336 71 0c39 0 83-2 97-3z m2121-169c-139-17-252-122-281-259-33-155 54-314 201-371 69-26 154-28 222-6 103 35 182 118 212 222 23 77 16 155-20 230-51 104-146 172-260 184-33 4-43 4-74 0z m80-163c83-21 136-101 124-186-19-134-186-190-282-94-33 34-49 71-49 119 0 46 16 84 49 117 33 32 69 48 115 48 13 1 33-2 43-4z m437 160c-19-5-39-21-48-39l-9-16 0-268c0-263 1-269 7-282 8-18 19-30 38-39 43-20 95 4 108 51 2 7 3 64 3 149 0 108 1 141 5 156 22 96 118 151 207 121 21-8 35-16 54-31 27-22 49-28 76-22 35 9 59 40 59 75 0 35-17 57-68 91-47 31-97 48-152 51-56 3-115-10-162-35-11-5-21-10-22-10-1 0-4 4-6 9-12 29-57 49-90 39z m-1814-3c-78-6-152-42-207-100-122-129-120-332 6-457 83-84 198-114 321-85 58 14 111 41 149 77 35 32 40 78 11 111-17 19-35 27-59 27-23 0-35-5-59-24-36-29-82-45-133-45-37 0-61 7-90 25-33 21-66 65-73 96l-2 9 204 0c163 0 207 1 216 4 19 7 32 19 43 41 19 40 14 83-17 145-43 83-111 141-196 166-15 4-37 8-48 9-11 1-24 2-29 2-5 1-21 0-37-1z m66-160c24-6 46-17 63-33 15-13 32-35 32-39 0-2-62-3-138-3l-138 0 4 7c7 14 39 41 60 52 38 20 77 25 117 16z m2566 160c-147-11-273-129-294-277-5-34-2-96 6-128 14-56 45-111 87-153 54-53 117-83 196-93 75-9 176 16 240 59 52 35 71 67 62 106-11 43-59 70-103 55-6-1-20-10-30-19-44-36-110-54-164-45-26 4-62 22-83 40-18 15-41 49-48 70l-6 17 210 2c232 1 217 0 238 22 13 13 25 41 27 61 6 50-37 139-92 194-67 67-148 96-246 89z m62-159c21-4 49-18 66-32 13-11 31-35 31-41 0-2-42-3-136-3-81 0-136 1-136 3 0 6 32 38 50 49 16 11 45 22 63 25 15 3 46 3 62-1z m1638 160c-27-9-45-31-48-60-1-9-2-17-3-17 0 0-9 7-20 14-25 19-66 39-99 49-24 8-32 8-78 9-59 0-87-6-133-27-51-25-89-55-121-98-71-96-83-221-30-328 37-75 103-132 183-158 99-33 198-17 282 46l17 13 2-21c2-30 13-48 36-60 36-18 79-4 99 33l6 13 0 270c0 259 0 272-5 282-8 15-20 27-34 34-13 7-42 10-54 6z m-207-161c83-25 134-107 117-188-27-129-184-175-276-82-32 31-47 68-47 112 0 16 2 34 5 44 16 54 61 99 115 114 23 6 65 6 86 0z" horiz-adv-x="5575" />

<glyph glyph-name="isotipo" unicode="&#xe839;" d="M941 848c-18-6-46-33-57-56-5-11-10-28-10-37 0-32 21-58 53-67 12-3 33-3 44 1 6 2 27 11 47 22 28 14 38 19 47 21 31 7 49-7 47-36-1-11-5-18-14-27-22-20-61-26-115-15-18 4-34 8-79 22-88 28-103 32-134 32-20 0-24-1-34-3-42-12-71-45-118-134-35-65-46-95-48-132-1-42 9-70 35-97 20-21 45-35 86-49 13-4 23-8 23-9 0-5-51 2-81 12-20 7-33 15-47 28-12 12-19 22-25 38-7 17-8 25-7 45 0 21 3 34 9 56 3 8 4 16 4 18l0 4-26 0c-39-1-73 3-112 12-72 17-128 19-175 6-34-9-63-25-87-48-36-35-55-75-63-135-10-69-31-109-86-163-20-19-23-25-11-25 8 0 32 5 43 10 22 9 40 20 56 33 4 4 9 7 10 7 3 0 20-42 25-63 9-34 5-58-14-78-14-15-31-23-65-30-8-2-16-4-17-5-4-4-10-14-14-25-3-9-3-13-3-22 2-23 18-44 44-56 36-18 62-16 114 6 35 16 57 31 125 83 55 43 81 59 109 67 50 15 94 9 120-18 5-5 12-13 14-17 4-7 4-9 4-22 0-11-1-16-3-22-6-17-23-37-42-51-21-15-23-17-23-24 0-17 24-38 53-48 10-3 13-3 29-3 22 0 32 2 49 10 40 19 70 53 102 118 6 13 22 47 35 77 25 58 34 76 49 99 30 48 62 82 143 154 60 52 63 54 144 93 24 12 26 14 26 23 0 6 0 8-3 11-4 4-7 4-30 5-17 1-37 6-51 13-15 7-26 20-18 22 1 1 7 1 14 2 27 2 53 10 77 22 54 29 93 70 110 115 2 6 6 21 9 32 5 20 5 23 5 45 0 35-5 60-18 80-27 42-76 65-123 56-33-6-59-21-103-60-25-21-32-26-40-26-6 0-7 1-11 5-5 5-8 11-5 13 0 1 5 1 12-2 14-4 19-3 28 6 6 6 9 14 9 27 0 21-13 48-26 54-6 2-8 2-15 0z m-43-218c9-4 20-15 23-25 3-10 3-29 0-30-1-1-9 3-19 9-17 10-24 14-38 18-13 5-16 11-8 20 10 12 25 15 42 8z m-95-525c-9-10-32-54-40-75-10-29-13-65-7-89 8-37 30-62 63-70 39-10 99 11 118 42 8 15 10 12-27 50-17 18-37 39-43 46-20 24-33 47-43 77-5 17-9 22-14 22-3 0-5-2-7-3z m-391-63c-36-12-85-52-99-81-19-39-5-84 33-103 12-6 29-9 50-8 22 1 37 4 50 11 12 6 29 20 29 24 0 1-5 9-12 17-13 17-23 36-28 54-2 11-3 17-3 49 0 25-1 38-2 39-2 3-6 3-18-2z" horiz-adv-x="1234" />

<glyph glyph-name="right-open-2" unicode="&#xe83a;" d="M154 849l500-500-500-500-154 154 346 346-346 346z" horiz-adv-x="654" />

<glyph glyph-name="left-open-2" unicode="&#xe83b;" d="M308 349l346-346-154-154-500 500 500 500 154-154z" horiz-adv-x="654" />

<glyph glyph-name="ok" unicode="&#xe83c;" d="M625 676q38-20 49-63t-9-80l-260-469q-30-53-91-53-43 0-74 31l-209 207q-31 32-31 74t31 74 74 31 74-31l111-110 193 347q20 38 62 50t80-8z" horiz-adv-x="679" />

<glyph glyph-name="cancel" unicode="&#xe83d;" d="M596 632q32-31 32-74t-32-74l-135-135 135-135q32-31 32-73t-32-74q-30-30-73-30t-74 30l-135 135-135-135q-30-30-74-30t-74 30q-31 31-31 74t31 73l135 135-135 135q-31 32-31 74t31 74q30 31 74 31t74-31l135-135 135 135q30 31 74 31t73-31z" horiz-adv-x="628" />

<glyph glyph-name="play" unicode="&#xe83e;" d="M178 15q-30-30-74-30-43 0-73 31t-31 74l0 520q0 44 31 74t73 31q44 0 74-30l343-335q-206-201-343-335z" horiz-adv-x="521" />

<glyph glyph-name="stop" unicode="&#xe83f;" d="M521 663q44 0 74-30t30-74l0-418q0-43-30-73t-74-30l-417 0q-44 0-74 30t-30 73l0 418q0 44 30 74t74 30l417 0z" horiz-adv-x="625" />

<glyph glyph-name="play-outline" unicode="&#xe840;" d="M104 610l0-520q1 0 1 1t1 0l265 259-262 256-3 3t-2 1z m0 105q44 0 74-30l343-335q-207-201-345-335-30-30-72-30t-73 31-31 74l0 520q0 44 31 74t73 31z" horiz-adv-x="521" />

<glyph glyph-name="stop-outline" unicode="&#xe841;" d="M521 559l-417 0 0-418 417 0 0 418z m0 104q44 0 74-30t30-74l0-418q0-43-30-73t-74-30l-417 0q-44 0-74 30t-30 73l0 418q0 44 30 74t74 30l417 0z" horiz-adv-x="625" />

<glyph glyph-name="papiro" unicode="&#xe842;" d="M258 847c-52-8-94-47-104-98-3-13-3-21-3-173l0-152 49-12c27-7 49-12 50-12 0-1-21-6-47-13-26-6-48-12-49-12l-3-1 0-124 0-125 217 0c206 0 218 0 223-2 15-3 28-11 38-21 10-10 15-20 19-33 2-6 2-8 2-57 1-36 1-53 2-56 6-31 22-48 51-54 10-2 28-2 39-1 36 6 54 26 57 63 1 11 2 136 1 136-1 0-29 6-63 13-48 9-61 12-58 13 1 0 29 5 62 12l59 12 0 125 0 124-24 13c-14 6-25 12-25 13 0 0 12 6 25 12l24 12 0 13 0 12-2 1c-2 0-24 6-50 12-25 7-46 12-46 12 0 1 22 6 49 13l49 12 0 100c1 108 1 104 5 124 6 27 19 51 37 67 15 12 34 22 55 27 4 1 8 2 8 2 0 0-5 2-15 3-6 1-46 1-316 1-245 0-312 0-316-1z m353-275c5-3 11-9 13-14 4-13-2-27-14-32l-5-1-131 0-131 0-4 2c-11 6-15 19-12 31 3 6 10 13 17 15 1 1 61 1 132 1l131 0 4-2z m-102-99c4-2 6-3 9-7 6-5 8-10 7-18 0-9-5-17-14-21l-3-2-83 0-82 0-4 2c-11 6-15 19-12 31 3 6 10 13 17 16 1 0 38 0 82 0 78 0 79 0 83-1z m100-100c6-3 13-9 15-15 2-6 1-14-1-19-3-6-8-10-13-12-5-2-5-2-134-2-128 0-130 0-134 1-17 7-21 29-8 41 2 3 7 6 10 7 1 0 60 0 131 0l130 0 4-1z m-97-101c5-3 10-9 12-14 2-6 1-14-1-19-3-5-7-9-12-12l-3-2-81 0c-80 0-81 0-85 2-14 5-20 21-13 34 2 6 9 11 15 13 1 0 39 0 83 0l81 0 4-2z m420 526c-53-4-77-28-81-80-1-6-1-29-1-52l0-42 66 1 66 0 5 2c5 3 8 7 11 12l2 5 0 38c0 41 0 54-3 64-5 18-16 34-32 45-13 8-15 9-33 7z m-912-724c-7-2-13-7-16-13l-2-4 0-49 0-50 2-9c6-24 16-43 32-59 14-16 31-26 50-33 12-4 20-5 32-6 6-1 128-1 293-1l284 0-8 2c-36 9-69 42-81 84-5 16-5 17-5 71l-1 49-2 5c-2 4-4 6-7 9-8 5 19 5-291 5-153 0-279-1-280-1z" horiz-adv-x="1000" />

<glyph glyph-name="up-open" unicode="&#xe843;" d="M939 107l-92-92q-11-10-26-10t-25 10l-296 297-296-297q-11-10-25-10t-25 10l-93 92q-11 11-11 26t11 25l414 414q11 10 25 10t25-10l414-414q11-11 11-25t-11-26z" horiz-adv-x="1000" />

<glyph glyph-name="down-open" unicode="&#xe844;" d="M939 399l-414-413q-10-11-25-11t-25 11l-414 413q-11 11-11 26t11 25l93 92q10 11 25 11t25-11l296-296 296 296q11 11 25 11t26-11l92-92q11-11 11-25t-11-26z" horiz-adv-x="1000" />

<glyph glyph-name="award" unicode="&#xe845;" d="M256 357q-42 91-42 207h-143v-53q0-44 53-91t132-63z m601 154v53h-143q0-116-41-207 79 16 131 63t53 91z m72 71v-71q0-40-24-80t-62-73-97-54-120-25q-23-30-53-53-21-19-29-40t-8-50q0-30 17-51t54-21q42 0 75-25t32-64v-36q0-8-5-13t-13-5h-464q-8 0-13 5t-5 13v36q0 39 33 64t74 25q38 0 55 21t17 51q0 28-8 50t-29 40q-30 23-53 53-64 3-121 25t-96 54-63 73-23 80v71q0 23 16 38t38 16h160v53q0 37 27 63t63 27h321q37 0 63-27t26-63v-53h161q22 0 38-16t16-38z" horiz-adv-x="928.6" />

<glyph glyph-name="multiplas_escolhas" unicode="&#xe846;" d="M123 847c-5-2-12-7-17-12-16-16-14 17-14-388l1-362 4-7c6-11 13-18 24-23 9-4 12-4 159-4 94 0 151 1 154 2 9 5 7 24-3 28-4 1-60 1-152 1l-146 0-5 7-5 6 0 356 0 356 6 6 5 6 291 0 290 0 6-6 6-6 0-265 0-264 4-5c7-7 16-7 22 0l5 5 0 265c0 298 1 277-15 292-15 16 9 15-319 15-260 0-293-1-301-3z m116-150c-33-10-53-45-45-77 6-22 16-35 37-46 7-3 11-4 27-4 20 0 27 2 42 14 13 10 27 40 23 52-1 8-8 13-15 13-8 0-14-6-16-18-2-11-5-18-14-25-6-4-9-5-20-5-11 0-14 1-20 5-10 8-14 16-14 29 0 18 16 33 34 33 8 0 15 8 15 16 0 9-7 16-17 15-5 0-13-1-17-2z m125-19c-6-7-6-15 1-22l5-4 99-1c55 0 103 0 107 1 3 0 8 3 10 5 5 5 5 16 0 21-4 4-6 4-111 4l-107 0-4-4z m0-67c-7-9-6-19 3-24 5-2 26-3 142-3 134 0 137 0 142 4 3 2 5 6 6 9 1 6-3 16-8 18-1 0-66 1-142 1l-140 0-3-5z m-124-98c-12-3-21-9-31-20-29-32-18-83 21-102 8-4 12-5 28-5 16 0 20 1 28 5 20 10 33 29 37 52 2 9-2 19-8 21-11 5-21-2-23-17-2-17-14-29-30-30-13-1-22 2-29 10-11 13-12 30-2 45 4 6 18 13 27 13 4 0 8 2 11 5 10 10 3 26-13 26-4 0-11-1-16-3z m124-19c-9-9-4-23 9-26 4 0 33-1 66 0 58 0 59 0 63 5 6 6 6 17 0 22-4 3-9 3-69 3l-65 0-4-4z m214 1c-11-6-22-17-29-29l-5-10-1-108 0-108-28-29c-30-30-36-39-43-59-7-23-6-34 14-119 22-92 23-95 31-111 18-35 52-61 91-69 22-4 173-4 194 0 47 10 84 43 100 90l5 15 1 103c0 114 0 115-13 132-4 5-12 12-18 15-14 8-35 9-50 2l-10-5-9 9c-18 18-42 23-64 12l-12-5-8 9c-4 5-11 11-16 13-10 5-30 7-41 3l-9-3 0 106c-1 105-1 106-5 115-6 12-16 24-27 29-12 6-36 7-48 2z m36-31c3-2 7-6 9-11 4-8 4-15 4-151l0-143 5-4c6-5 14-5 19-2 5 5 7 11 7 28 0 14 1 19 4 24 7 12 23 16 35 8 10-6 11-10 12-41 1-24 2-29 5-32 5-6 12-7 18-4 7 4 8 6 9 29 1 20 4 28 16 33 13 6 25 1 33-12 1-2 2-16 3-32 1-27 1-29 6-33 6-5 15-4 20 2 5 4 5 6 5 21 0 28 8 39 27 39 11 0 19-5 23-16 4-8 4-184 1-203-7-38-38-71-76-80-18-4-169-4-187 0-30 7-54 26-67 53-6 13-11 28-26 95-21 88-22 97-15 116 3 9 8 15 22 29l17 18 0-30c0-22 1-30 3-33 6-9 22-7 26 2 2 4 2 49 2 159 0 139 1 154 4 160 6 13 22 18 36 11z m-250-37c-8-7-6-19 3-23 5-3 17-3 68-3l62 0 5 5c3 4 6 8 6 9 0 5-5 15-9 16-2 0-32 1-67 1l-63 0-5-5z m-121-96c-29-8-50-34-50-63 0-16 3-26 11-38 12-18 31-28 54-28 18 0 32 5 45 17 11 11 16 21 19 36 4 18-1 27-15 27-8 0-13-7-15-18-2-17-14-29-30-31-13-1-22 2-29 11-11 12-12 30-2 44 4 6 18 13 27 13 13 0 20 16 12 26-4 4-17 6-27 4z m121-21c-8-10-4-23 8-25 2-1 32-1 65-1 60 1 61 1 65 5 6 6 6 17 0 22-4 4-9 4-69 4l-66 0-3-5z m0-66c-6-6-6-15-1-21 4-5 4-5 51-5 41-1 48-1 52 2 7 4 9 11 7 18-4 10-6 10-57 10l-47 0-5-4z" horiz-adv-x="1000" />

<glyph glyph-name="escrever" unicode="&#xe847;" d="M509 752c-8-4-9-5-66-86-42-61-50-72-53-71-44 13-45 13-124-21-63-27-78-36-88-48-7-9-164-256-170-267-2-5-5-14-6-22-8-42 19-85 60-98l10-3-5-7c-11-14-12-19-22-87-5-36-10-69-10-72 0-14 14-27 29-27 8 0 16 4 66 31l57 30 3-4c27-41 83-53 122-26l10 7 10-7c26-18 65-19 92-4 27 16 45 48 45 80 0 7 0 7 4 6 3-1 8-3 12-5 13-7 52-19 75-24 85-18 175-8 253 27l11 5 0-38c0-32 1-40 3-45 5-9 13-15 24-16 9-1 13 1 75 32 61 31 65 33 70 41l4 7-1 184c0 183 0 184-4 190-2 3-6 7-9 9-6 4-9 4-113 5l-108 1-101 50c-55 27-101 49-101 50 0 0 17 26 38 56 22 31 40 58 42 60 3 6 2 20-1 27-2 4-19 17-55 42-29 20-54 37-57 38-7 3-14 3-21 0z m61-98c6-4 7-2-14-31-8-12-14-19-16-18-1 0-12 8-24 16l-22 15 4 5c1 3 9 14 16 24l14 19 19-13c10-7 21-15 23-17z m-84-84c14-10 21-16 20-17 0-2-39-57-84-122l-84-120-35 0c-20 0-35 1-35 2 2 6 192 275 194 274 1-1 12-8 24-17z m-129-26c0 0-38-55-85-122-83-119-85-122-95-127-27-15-49-43-56-73-3-14-7-20-16-24-15-8-32-4-40 8-6 7-8 21-4 27 7 14 159 252 163 256 4 3 25 14 60 29 30 13 57 25 60 25 5 2 13 3 13 1z m354-153l44-21 35 0 34 0 0-123 0-123-23-11c-52-24-91-34-147-36-63-2-114 11-180 44l-26 13-115 1c-115 1-115 1-123 6-13 7-22 15-28 27-4 9-5 14-5 26 0 24 12 42 34 52l11 5 114 2c127 1 127 1 161 14 23 9 43 21 63 37 18 15 24 22 25 31 4 21-17 39-37 33-3-1-11-7-17-12-31-27-65-42-103-44-16-1-18-1-17 1 1 2 28 40 59 85l58 82 70-34c38-19 89-44 113-55z m230-174l0-152-29-15-29-14 0 167 0 167 29 0 29 0 0-153z m-766-125c4-1 7-3 7-3 0-1-6-9-12-17-11-16-11-16-39-31-15-9-28-15-28-15-1 1 1 15 4 32l4 31 13 19 13 19 16-16c9-9 19-17 22-19z m118-34c0-26-7-37-25-39-19-3-32 9-33 29-1 11 0 13 4 21l6 8 24 0 24 0 0-19z m117 0c0-28-8-39-29-39-21 0-29 11-29 39l0 19 29 0 29 0 0-19z" horiz-adv-x="1000" />

<glyph glyph-name="print" unicode="&#xe848;" d="M214-7h500v143h-500v-143z m0 357h500v214h-89q-22 0-38 16t-16 38v89h-357v-357z m643-36q0 15-10 25t-26 11-25-11-10-25 10-25 25-10 26 10 10 25z m72 0v-232q0-7-6-12t-12-6h-125v-89q0-22-16-38t-38-16h-536q-22 0-37 16t-16 38v89h-125q-7 0-13 6t-5 12v232q0 44 32 76t75 31h36v304q0 22 16 38t37 16h375q23 0 50-12t42-26l85-85q15-16 27-43t11-49v-143h35q45 0 76-31t32-76z" horiz-adv-x="928.6" />

<glyph glyph-name="volume" unicode="&#xe849;" d="M0 142l0 416 236 0 354 289 0-994-354 289-236 0z m652 35q73 74 73 176t-73 178l71 74q105-106 107-254 0-145-107-246z m118-119q123 119 123 295t-123 299l76 74q154-154 154-372t-154-372z" horiz-adv-x="1000" />

<glyph glyph-name="training-icon" unicode="&#xe854;" d="M232 850a110 110 0 1 0-110-109 109 109 0 0 0 110 109z m-78-240l39-102h4l19 66-10 11c-8 11-5 23 9 26a105 105 0 0 0 15 0 88 88 0 0 0 17-1c13-3 15-16 8-26l-11-11 20-65h4l35 102a48 48 0 0 1 5-4 71 71 0 0 0 29-9 50 50 0 0 0 32-21l83-115 60-11v224h-85a20 20 0 1 0 0 39h392v58a20 20 0 0 0 40 0v-58h418a20 20 0 1 0 0-40h-84v-486h85a20 20 0 0 0 0-39h-416v-90a27 27 0 0 1 2-2l123-117a20 20 0 1 0-27-28l-98 94v-85a20 20 0 0 0-40 0v88l-102-97a19 19 0 0 0-28 1 19 19 0 0 0 1 27l123 116h0a18 18 0 0 0 6 5v88h-395a20 20 0 0 0 0 39h84v158l-98 19a52 52 0 0 0-33 20l-41 58v-2l-4-166 43-267 16-92c9-61-85-97-108-17l-54 322-56-327c-10-59-107-60-108 12l62 366-5 198a84 84 0 0 1-13-21 133 133 0 0 1-10-48l-9-116c-4-60-94-64-93 1 1 29 3 59 6 89 7 57 8 93 40 150a193 193 0 0 0 48 55 128 128 0 0 0 52 24 77 77 0 0 1 8 7z m397-164l110 116a26 26 0 1 0 38-36l-104-109a52 52 0 0 0-44-79v-151h603v487h-603v-228z" horiz-adv-x="1298" />

<glyph glyph-name="training" unicode="&#xe855;" d="M333 163h-31c0-11 6-22 15-27 10-6 21-6 31-1z m-281-230c0-17 14-31 31-31s32 14 32 31z m416 300l15-27 1 0 1 1z m65-102l15-28 1 1 1 1z m-168-89l-14 27-1 0-1-1z m-116 29l27 16z m-13 86c-9 15-28 20-43 12-15-9-20-28-12-43z m317 56l27 17z m-188-196c0 17-14 31-32 31s-31-14-31-31z m-63-84c0-17 14-31 31-31s32 14 32 31z m234 330l-17-27 53-33 17 26z m199 195c9 15 5 34-10 43-14 10-34 5-43-9z m-516 205c0-18 14-32 31-32s31 14 31 32z m573-282c-18 0-32-14-32-31s14-31 32-31z m-375 250c-18 0-32-14-32-31s14-31 32-31z m333-62c17 0 31 14 31 31s-14 31-31 31z m-333-63c-18 0-32-14-32-31s14-31 32-31z m166-62c18 0 32 14 32 31s-14 31-32 31z m-323 31c0-29-23-52-52-52v-63c64 0 115 52 115 115z m-52-52c-28 0-52 23-52 52h-62c0-63 51-115 114-115z m-52 52c0 29 24 52 52 52v63c-63 0-114-52-114-115z m52 52c29 0 52-23 52-52h63c0 63-51 115-115 115z m157-364v20h-63v-20z m-313 20v-250h63v250z m296-48l135 71-29 55-135-71z m170 24l-167-90 29-55 168 89z m-242-72l-40 70-55-31 41-70z m209 120c14 9 33 4 41-10l54 33c-27 44-85 57-128 30z m-136-139c-25-15-58-7-73 19l-54-31c32-57 105-75 160-41z m-234 115c0 52 42 94 93 94v63c-86 0-156-70-156-157z m411 14c8-13 4-31-10-39l34-53c42 26 55 82 30 125z m-161-14c0 87-70 157-157 157v-63c52 0 94-42 94-94z m-63-166v-84h63v84z m287 212l146 229-53 34-146-229z m-308 434v20h-62v-20z m52 72h500v63h-500z m552-52v-250h63v250z m-52-302h-41v-62h41z m52 52c0-28-23-52-52-52v-62c64 0 115 51 115 114z m-52 302c29 0 52-23 52-52h63c0 64-51 115-115 115z m-552-52c0 29 24 52 52 52v63c-63 0-114-51-114-115z m136-114h333v62h-333z m0-125h166v62h-166z" horiz-adv-x="1000" />

<glyph glyph-name="th-thumb" unicode="&#xf00a;" d="M0-66v286q0 22 15 37t37 16h285q22 0 37-16t15-37v-286q0-21-15-36t-37-15h-285q-22 0-37 15t-15 36z m0 546v286q0 21 15 36t37 15h285q22 0 37-15t15-36v-286q0-22-15-37t-37-16h-285q-22 0-37 16t-15 37z m547-546v286q0 22 15 37t37 16h286q21 0 37-16t15-37v-286q0-21-15-36t-37-15h-286q-21 0-37 15t-15 36z m0 546v286q0 21 15 36t37 15h286q22 0 37-15t15-36v-286q0-22-15-37t-37-16h-286q-21 0-37 16t-15 37z" horiz-adv-x="937.5" />

<glyph glyph-name="th-thumb-empty" unicode="&#xf00b;" d="M0-66v286q0 22 15 37t37 16h286q21 0 37-16t15-37v-286q0-21-15-36t-37-15h-286q-22 0-37 15t-15 36z m0 546v286q0 21 15 36t37 15h286q21 0 37-15t15-36v-286q0-22-15-37t-37-16h-286q-21 0-37 16t-15 37z m88-510h214v214h-214v-214z m0 546h214v213h-214v-213z m459-582v286q0 22 15 37t37 16h286q21 0 37-16t15-37v-286q0-21-15-36t-37-15h-286q-21 0-37 15t-15 36z m0 546v286q0 21 15 36t37 15h286q22 0 37-15t15-36v-286q0-22-15-37t-37-16h-286q-21 0-37 16t-15 37z m88-510h215v214h-215v-214z m0 546h215v213h-215v-213z" horiz-adv-x="937.5" />

<glyph glyph-name="twitter-1" unicode="&#xf099;" d="M904 622q-37-54-90-93 0-8 0-23 0-73-21-145t-64-139-103-117-144-82-181-30q-151 0-276 81 19-2 43-2 126 0 224 77-59 1-105 36t-64 89q19-3 34-3 24 0 48 6-63 13-104 62t-41 115v2q38-21 82-23-37 25-59 64t-22 86q0 49 25 91 68-83 164-133t208-55q-5 21-5 41 0 75 53 127t127 53q79 0 132-57 61 12 115 44-21-64-80-100 52 6 104 28z" horiz-adv-x="928.6" />

<glyph glyph-name="table" unicode="&#xf0ce;" d="M286 82v107q0 8-5 13t-13 5h-179q-7 0-12-5t-6-13v-107q0-8 6-13t12-5h179q8 0 13 5t5 13z m0 214v108q0 7-5 12t-13 5h-179q-7 0-12-5t-6-12v-108q0-7 6-12t12-5h179q8 0 13 5t5 12z m285-214v107q0 8-5 13t-12 5h-179q-8 0-13-5t-5-13v-107q0-8 5-13t13-5h179q7 0 12 5t5 13z m-285 429v107q0 8-5 13t-13 5h-179q-7 0-12-5t-6-13v-107q0-8 6-13t12-5h179q8 0 13 5t5 13z m285-215v108q0 7-5 12t-12 5h-179q-8 0-13-5t-5-12v-108q0-7 5-12t13-5h179q7 0 12 5t5 12z m286-214v107q0 8-5 13t-13 5h-178q-8 0-13-5t-5-13v-107q0-8 5-13t13-5h178q8 0 13 5t5 13z m-286 429v107q0 8-5 13t-12 5h-179q-8 0-13-5t-5-13v-107q0-8 5-13t13-5h179q7 0 12 5t5 13z m286-215v108q0 7-5 12t-13 5h-178q-8 0-13-5t-5-12v-108q0-7 5-12t13-5h178q8 0 13 5t5 12z m0 215v107q0 8-5 13t-13 5h-178q-8 0-13-5t-5-13v-107q0-8 5-13t13-5h178q8 0 13 5t5 13z m72 178v-607q0-37-27-63t-63-26h-750q-36 0-63 26t-26 63v607q0 37 26 63t63 27h750q37 0 63-27t27-63z" horiz-adv-x="928.6" />

<glyph glyph-name="linkedin-1" unicode="&#xf0e1;" d="M195 501v-553h-184v553h184z m12 171q0-41-29-68t-75-27h-1q-46 0-74 27t-28 68q0 41 29 68t75 27 74-27 29-68z m650-407v-317h-183v296q0 59-23 92t-71 33q-35 0-58-19t-36-48q-6-17-6-45v-309h-184q1 223 1 361t0 165l-1 27h184v-80h-1q11 18 23 31t31 29 49 24 64 9q95 0 153-63t58-186z" horiz-adv-x="857.1" />

<glyph glyph-name="youtube-play" unicode="&#xf16a;" d="M397 221l270 139-270 141v-280z m103 481q94 0 181-3t128-5l41-2q0 0 9-1t13-2 13-2 16-5 16-7 17-11 16-15q4-3 9-10t16-33 15-56q4-36 7-76t3-64v-98q1-81-10-162-4-30-14-55t-18-35l-8-9q-7-8-16-15t-17-10-16-7-16-5-13-2-13-2-9-1q-140-11-350-11-115 2-201 4t-111 4l-28 3-20 2q-20 3-30 5t-29 12-31 23q-4 3-9 10t-16 33-15 56q-4 36-7 76t-3 64v98q-1 81 10 162 4 31 14 55t18 35l8 9q8 9 16 15t17 11 16 7 16 5 13 2 13 2 9 1q140 10 350 10z" horiz-adv-x="1000" />

<glyph glyph-name="instagram" unicode="&#xf16d;" d="M571 350q0 59-41 101t-101 42-101-42-42-101 42-101 101-42 101 42 41 101z m77 0q0-91-64-156t-155-64-156 64-64 156 64 156 156 64 155-64 64-156z m61 229q0-21-15-36t-37-15-36 15-15 36 15 36 36 15 37-15 15-36z m-280 123q-4 0-43 0t-59 0-54-2-57-5-40-11q-28-11-49-32t-33-49q-6-16-10-40t-6-58-1-53 0-59 0-43 0-43 0-59 1-53 6-58 10-40q12-28 33-49t49-32q16-6 40-11t57-5 54-2 59 0 43 0 42 0 59 0 54 2 58 5 39 11q28 11 50 32t32 49q6 16 10 40t6 58 1 53 0 59 0 43 0 43 0 59-1 53-6 58-10 40q-11 28-32 49t-50 32q-16 6-39 11t-58 5-54 2-59 0-42 0z m428-352q0-128-3-177-5-116-69-180t-179-69q-50-3-177-3t-177 3q-116 6-180 69t-69 180q-3 49-3 177t3 177q5 116 69 180t180 69q49 3 177 3t177-3q116-6 179-69t69-180q3-49 3-177z" horiz-adv-x="857.1" />

<glyph glyph-name="graduation-cap" unicode="&#xf19d;" d="M990 384l10-177q2-38-46-71t-131-52-180-20-180 20-131 52-46 71l10 177 320-101q12-4 27-4t27 4z m296 180q0-12-13-17l-625-196q-2-1-5-1t-6 1l-364 115q-24-19-39-63t-19-99q35-20 35-61 0-39-32-60l32-242q1-7-4-13-5-7-14-7h-107q-8 0-13 7-6 6-5 13l33 242q-33 21-33 60 0 41 36 62 7 115 55 184l-186 58q-12 5-12 17t12 18l625 196q3 1 6 1t5-1l625-196q13-5 13-18z" horiz-adv-x="1285.7" />

<glyph glyph-name="percent" unicode="&#xf295;" d="M714 136q0 29-21 50t-50 21-50-21-22-50 22-50 50-22 50 22 21 50z m-428 428q0 29-21 51t-51 21-50-21-21-51 21-50 50-21 51 21 21 50z m571-428q0-89-63-152t-151-63-152 63-62 152 62 151 152 63 151-63 63-151z m-53 607q0-11-8-21l-589-786q-11-15-28-15h-90q-14 0-25 11t-10 25q0 11 7 21l589 786q11 15 29 15h89q14 0 25-11t11-25z m-375-179q0-88-63-151t-152-63-151 63-63 151 63 152 151 63 152-63 63-152z" horiz-adv-x="857.1" />

<glyph glyph-name="facebook-squared" unicode="&#xf308;" d="M696 779q67 0 114-48t47-113v-536q0-66-47-113t-114-48h-104v333h111l16 129h-127v83q0 31 13 46t51 16l68 1v115q-35 5-100 5-75 0-121-44t-45-127v-95h-112v-129h112v-333h-297q-67 0-114 48t-47 113v536q0 66 47 113t114 48h535z" horiz-adv-x="857.1" />
</font>
</defs>
</svg>
